<svg width="25" height="25" viewBox="0 0 25 25" fill="none" xmlns="http://www.w3.org/2000/svg">
<path d="M12.3445 24.689C5.52663 24.689 0 19.1624 0 12.3445C0 5.52663 5.52663 0 12.3445 0C19.1624 0 24.689 5.52663 24.689 12.3445C24.689 19.1624 19.1624 24.689 12.3445 24.689ZM12.3445 22.2201C14.9637 22.2201 17.4756 21.1796 19.3276 19.3276C21.1796 17.4756 22.2201 14.9637 22.2201 12.3445C22.2201 9.72533 21.1796 7.21343 19.3276 5.3614C17.4756 3.50936 14.9637 2.4689 12.3445 2.4689C9.72533 2.4689 7.21343 3.50936 5.3614 5.3614C3.50936 7.21343 2.4689 9.72533 2.4689 12.3445C2.4689 14.9637 3.50936 17.4756 5.3614 19.3276C7.21343 21.1796 9.72533 22.2201 12.3445 22.2201ZM11.11 6.17225H13.5789V8.64115H11.11V6.17225ZM11.11 11.11H13.5789V18.5167H11.11V11.11Z" fill="#307EE2"/>
</svg>
