<svg width="25" height="25" viewBox="0 0 25 25" fill="none" xmlns="http://www.w3.org/2000/svg">
<path d="M12.33 8.66477C10.1266 8.66477 8.3284 10.463 8.3284 12.6664C8.3284 14.8698 10.1266 16.668 12.33 16.668C14.5335 16.668 16.3317 14.8698 16.3317 12.6664C16.3317 10.463 14.5335 8.66477 12.33 8.66477ZM24.3319 12.6664C24.3319 11.0093 24.3469 9.36723 24.2539 7.71315C24.1608 5.79189 23.7225 4.08677 22.3176 2.68184C20.9097 1.27392 19.2075 0.838631 17.2863 0.74557C15.6292 0.652509 13.9871 0.667519 12.333 0.667519C10.6759 0.667519 9.03386 0.652509 7.37977 0.74557C5.45851 0.838631 3.75339 1.27692 2.34847 2.68184C0.940543 4.08977 0.505257 5.79189 0.412196 7.71315C0.319135 9.37024 0.334145 11.0123 0.334145 12.6664C0.334145 14.3205 0.319135 15.9656 0.412196 17.6197C0.505257 19.5409 0.943545 21.246 2.34847 22.651C3.75639 24.0589 5.45851 24.4942 7.37977 24.5872C9.03686 24.6803 10.6789 24.6653 12.333 24.6653C13.9901 24.6653 15.6322 24.6803 17.2863 24.5872C19.2075 24.4942 20.9127 24.0559 22.3176 22.651C23.7255 21.243 24.1608 19.5409 24.2539 17.6197C24.3499 15.9656 24.3319 14.3235 24.3319 12.6664ZM12.33 18.8234C8.92279 18.8234 6.17298 16.0736 6.17298 12.6664C6.17298 9.25916 8.92279 6.50936 12.33 6.50936C15.7373 6.50936 18.4871 9.25916 18.4871 12.6664C18.4871 16.0736 15.7373 18.8234 12.33 18.8234ZM18.7392 7.69514C17.9437 7.69514 17.3013 7.05271 17.3013 6.25719C17.3013 5.46167 17.9437 4.81925 18.7392 4.81925C19.5348 4.81925 20.1772 5.46167 20.1772 6.25719C20.1774 6.44609 20.1404 6.63318 20.0682 6.80775C19.996 6.98232 19.8901 7.14093 19.7565 7.2745C19.623 7.40807 19.4644 7.51398 19.2898 7.58616C19.1152 7.65834 18.9281 7.69537 18.7392 7.69514Z" fill="white"/>
</svg>
