<svg width="25" height="25" viewBox="0 0 25 25" fill="none" xmlns="http://www.w3.org/2000/svg">
<path fill-rule="evenodd" clip-rule="evenodd" d="M0.666626 2.67172C0.666626 2.13994 0.877876 1.62993 1.2539 1.25391C1.62993 0.877879 2.13993 0.666629 2.67172 0.666629H22.6594C22.9229 0.666198 23.1839 0.717752 23.4275 0.818338C23.6711 0.918924 23.8924 1.06657 24.0789 1.25281C24.2653 1.43906 24.4132 1.66025 24.5141 1.90373C24.6149 2.14721 24.6668 2.40818 24.6666 2.67172V22.6594C24.6669 22.9229 24.6152 23.184 24.5145 23.4276C24.4138 23.6712 24.2661 23.8925 24.0797 24.079C23.8934 24.2654 23.6721 24.4133 23.4286 24.5141C23.1851 24.6149 22.924 24.6668 22.6604 24.6666H2.67172C2.40831 24.6666 2.14749 24.6147 1.90415 24.5139C1.66081 24.4131 1.43972 24.2653 1.25352 24.079C1.06731 23.8927 0.919643 23.6715 0.818942 23.4281C0.71824 23.1847 0.666483 22.9238 0.666626 22.6604V2.67172ZM10.1663 9.81717H13.4161V11.4492C13.8852 10.511 15.0852 9.66663 16.8884 9.66663C20.3455 9.66663 21.1648 11.5354 21.1648 14.9641V21.3154H17.6663V15.7452C17.6663 13.7924 17.1972 12.6906 16.0059 12.6906C14.3532 12.6906 13.6659 13.8786 13.6659 15.7452V21.3154H10.1663V9.81717ZM4.16626 21.1659H7.6659V9.66663H4.16626V21.1648V21.1659ZM8.16663 5.91608C8.17322 6.21573 8.1199 6.51367 8.0098 6.79243C7.89969 7.07118 7.73501 7.32514 7.52542 7.53939C7.31584 7.75364 7.06557 7.92387 6.7893 8.04009C6.51304 8.15631 6.21634 8.21617 5.91663 8.21617C5.61691 8.21617 5.32021 8.15631 5.04395 8.04009C4.76768 7.92387 4.51741 7.75364 4.30783 7.53939C4.09824 7.32514 3.93356 7.07118 3.82346 6.79243C3.71335 6.51367 3.66003 6.21573 3.66663 5.91608C3.67958 5.32792 3.92232 4.76822 4.34286 4.35683C4.76341 3.94544 5.32832 3.71508 5.91663 3.71508C6.50493 3.71508 7.06984 3.94544 7.49039 4.35683C7.91093 4.76822 8.15367 5.32792 8.16663 5.91608Z" fill="white"/>
</svg>
