<svg width="169" height="23" viewBox="0 0 169 23" fill="none" xmlns="http://www.w3.org/2000/svg">
<path d="M22.1624 15.7299C22.1624 18.9576 19.0941 21.9987 15.843 21.9987C13.397 21.9987 11.3515 20.8942 10.3831 19.0393C9.25538 21.0576 7.66486 22.0803 5.701 22.0803C2.82328 22.0803 0.645542 20.2254 0.645542 17.7754C0.645542 17.4526 0.672763 17.0482 0.78165 16.4571C1.15887 16.5115 1.50886 16.5388 1.83163 16.5388C3.41827 16.5388 4.30492 15.9204 4.7638 14.5477L5.946 11.1061C5.11379 11.4016 4.33214 11.5377 3.57771 11.5377C1.42719 11.5377 0 10.165 0 8.09613C0 3.65899 5.78267 0.349609 13.5564 0.349609C19.7707 0.349609 23.5896 2.50012 23.5896 5.99617C23.5896 8.49668 21.5713 10.7016 18.6391 11.4288C20.6574 11.8333 22.1624 13.6883 22.1624 15.7338V15.7299ZM14.3342 2.71401L14.4431 2.20457C14.0386 2.15013 13.6109 2.12291 13.0431 2.12291C8.92872 2.12291 5.4599 5.78229 5.4599 8.55112C5.4599 9.27833 5.75545 9.76054 6.31933 9.97832C8.01485 5.00063 10.4881 2.50013 14.3342 2.71401ZM14.7114 12.5333C14.7114 11.4561 14.0931 10.5422 13.2336 10.3011L11.7792 15.9749C11.402 17.4798 11.5653 18.3432 12.0748 18.3432C13.1792 18.3432 14.7114 14.9793 14.7114 12.5333ZM16.4614 4.40953C16.4614 3.17289 16.0025 2.44568 15.2247 2.39124L13.3697 9.67888C14.8242 9.73332 16.4614 6.9606 16.4614 4.40565" fill="#101920"/>
<path d="M32.4638 6.75128L31.3866 11.0834C30.6594 14.0428 30.4183 15.225 30.4183 15.9794C30.4183 16.5433 30.5544 16.8117 30.85 16.8117C31.791 16.8117 33.0549 12.9384 34.1321 6.75128H41.8786C40.4009 11.0834 39.942 13.5023 39.942 14.5795C39.942 15.3339 40.1287 15.7889 40.5875 15.7889C41.1242 15.7889 41.9059 15.33 42.9014 11.8612H44.1653C43.0375 18.235 40.1326 22.2443 36.7687 22.2443C34.591 22.2443 33.7043 20.5488 33.7043 18.4255C33.7043 17.6205 33.8405 16.7572 34.0543 15.8978H33.5449C32.4405 19.9344 30.1033 22.0849 27.4395 22.0849C25.0167 22.0849 23.3251 20.3621 23.3251 17.8889C23.3251 16.7339 23.7023 15.5206 24.4023 14.3656L23.1929 13.5062L24.9934 6.75517H32.4716L32.4638 6.75128Z" fill="#101920"/>
<path d="M52.7168 6.63522L51.4257 10.9129H50.4302C50.0257 11.8812 49.703 13.3357 49.703 14.1951C49.703 15.2178 50.0802 15.7545 50.7802 15.7545C51.694 15.7545 52.3124 14.5995 53.1212 11.854H54.3851C54.0351 13.5768 53.7396 14.759 53.4168 15.7001C52.1801 19.3867 49.2207 21.996 46.2886 21.996C44.6203 21.996 43.3292 21.3777 42.2014 20.0322C42.9831 19.0094 43.7336 17.2906 44.0564 15.7273H41.7698L43.1697 10.9129H41.8242L43.1153 6.63522C45.2153 6.63522 46.7747 5.37136 48.0113 2.6803H51.7251L50.4885 6.63522H52.7207H52.7168Z" fill="#101920"/>
<path d="M52.5573 19.7135C53.2301 18.6635 53.8756 17.213 54.1712 15.7314H51.6162C51.6707 13.1764 52.3706 10.4076 53.9301 8.65761C55.3845 7.01653 57.5894 6.021 59.9811 6.021C64.041 6.021 66.2226 8.03929 66.2226 10.5942C66.2226 13.822 63.7765 15.8403 60.0899 15.8403C59.6583 15.8403 59.2305 15.813 58.7989 15.7586C58.9583 17.213 59.9266 18.0452 61.6221 18.0452C64.4454 18.0452 66.9226 15.4903 67.8909 11.8581H69.1548C67.5954 21.1913 61.9993 22.6962 58.69 22.6962C55.3806 22.6962 53.2845 20.7868 52.5573 19.7096V19.7135ZM59.0944 14.0864C60.5994 14.0864 61.4899 11.477 61.4899 10.0498C61.4899 9.48593 61.3538 9.10871 61.0855 9.10871C60.2533 9.10871 59.0672 11.8542 58.8805 14.0592C58.9622 14.0864 59.0166 14.0864 59.0944 14.0864Z" fill="#101920"/>
<path d="M76.9518 9.13985C76.9518 9.40818 76.9245 9.67651 76.8701 9.97206H77.329L78.8067 6.79879H82.4117L80.125 14.732H75.124C75.5285 13.4409 75.9834 11.7454 75.9834 10.6954C75.9834 10.0498 75.824 9.6454 75.4196 9.6454C74.5329 9.6454 73.6424 11.9048 73.6424 14.0825C73.6424 16.1008 74.3968 18.0375 76.629 18.0375C79.4523 18.0375 81.9294 15.4825 82.8978 11.8504H84.1616C82.6022 21.1835 77.0062 22.6885 73.8602 22.6885C70.3369 22.6885 68.2914 20.888 67.3503 19.5424C67.9686 18.5197 68.5869 16.9875 68.8552 15.7236H66.4092C66.6503 10.4504 68.9369 6.01324 73.619 6.01324C75.6373 6.01324 76.9556 7.27711 76.9556 9.13208" fill="#101920"/>
<path d="M101.214 11.8544C100.487 15.9143 98.6864 20.9192 95.6453 20.9192C94.9998 20.9192 94.3815 20.7053 93.8448 20.3281C92.4176 21.6464 90.1582 22.5331 88.2488 22.5331C85.7211 22.5331 83.7028 21.5648 82.3845 19.7098C83.2167 18.4187 83.7028 17.2093 83.9983 15.7276H81.4434C81.6845 9.86331 85.2077 5.88116 90.1854 5.88116C94.4087 5.88116 97.0453 8.27668 97.0453 12.1227C97.0453 13.1999 96.8314 14.3821 96.427 15.646C96.7497 15.9415 97.1814 15.9415 97.3408 15.9415C98.0953 15.9415 98.9547 15.3232 99.9502 11.8544H101.214ZM93.1993 9.27221C92.9309 9.05833 92.6354 8.94944 92.2854 8.94944C90.4576 8.94944 88.4121 12.8771 88.4121 16.3188C88.4121 17.5826 88.7893 18.2554 89.3804 18.2554C89.9715 18.2554 90.7532 17.5009 91.0487 16.5871C90.8621 16.0776 90.7532 15.3504 90.7532 14.5688C90.7532 12.1499 91.7215 10.05 93.1993 9.26832" fill="#101920"/>
<path d="M121.335 2.74162C121.335 3.92382 120.367 5.02824 118.512 5.02824C118.298 5.02824 118.08 5.00102 117.839 4.9738L115.148 14.8203C114.152 18.4524 112.406 22.1351 107.428 22.1351C103.232 22.1351 100.891 20.0119 100.891 17.0797C100.891 14.5792 102.692 12.0787 105.196 12.0787C106.783 12.0787 107.428 12.9653 107.428 13.9881C107.428 14.3381 107.347 14.7153 107.215 15.0653L107.833 15.2286L109.956 7.75041C110.575 5.54545 111.652 3.84993 113.211 3.90437L113.32 3.60882C112.62 3.39494 111.974 3.28605 111.411 3.28605C108.937 3.28605 107.724 5.19546 107.724 6.86376C107.724 7.69597 108.02 8.4504 108.556 8.90928L107.775 11.3826C107.425 11.4642 107.102 11.4915 106.806 11.4915C103.174 11.4915 101.292 8.72262 101.292 5.92267C101.292 3.12272 103.229 0.221662 107.238 0.221662C110.225 0.221662 112.161 1.83552 114.957 3.09939C116.276 3.69049 117.162 3.90437 118.103 3.90437C119.258 3.90437 119.958 3.42216 119.904 2.82717C119.499 3.14994 118.908 3.30938 118.208 3.30938C116.917 3.30938 115.249 2.77273 113.635 1.72275C114.389 0.618322 115.922 0 117.563 0C120.063 0 121.327 1.39998 121.327 2.74551L121.335 2.74162ZM107.421 16.193C107.234 16.0569 107.043 15.9791 106.857 15.9791C105.834 15.9791 105.029 18.1024 105.029 19.3663C105.029 19.8757 105.165 20.253 105.488 20.253C106.293 20.253 107.047 17.8302 107.425 16.193" fill="#101920"/>
<path d="M131.823 10.5904C131.823 13.8181 129.377 15.8364 125.69 15.8364C125.259 15.8364 124.831 15.8092 124.399 15.7547C124.559 17.2091 125.527 18.0414 127.223 18.0414C130.046 18.0414 132.523 15.4864 133.491 11.8542H134.755C133.196 21.1874 127.518 22.6924 124.213 22.6924C118.834 22.6924 117.03 18.578 117.03 15.2142C117.03 12.982 117.812 10.4271 119.344 8.64986C120.798 6.98156 122.976 6.01324 125.585 6.01324C129.645 6.01324 131.827 8.03154 131.827 10.5865L131.823 10.5904ZM124.699 14.0825C126.204 14.0825 127.094 11.4731 127.094 10.0459C127.094 9.48207 126.958 9.10485 126.69 9.10485C125.858 9.10485 124.672 11.8504 124.485 14.0553C124.567 14.0825 124.621 14.0825 124.699 14.0825Z" fill="#101920"/>
<path d="M142.556 9.13985C142.556 9.40818 142.529 9.67651 142.475 9.97206H142.933L144.411 6.79879H148.016L145.73 14.732H140.729C141.133 13.4409 141.588 11.7454 141.588 10.6954C141.588 10.0498 141.428 9.6454 141.024 9.6454C140.137 9.6454 139.247 11.9048 139.247 14.0825C139.247 16.1008 140.001 18.0375 142.233 18.0375C145.057 18.0375 147.534 15.4825 148.502 11.8504H149.766C148.207 21.1835 142.611 22.6885 139.465 22.6885C135.941 22.6885 133.896 20.888 132.955 19.5424C133.573 18.5197 134.191 16.9875 134.46 15.7236H132.014C132.255 10.4504 134.541 6.01324 139.224 6.01324C141.242 6.01324 142.56 7.27711 142.56 9.13208" fill="#101920"/>
<path d="M159.286 1.55468C157.509 5.24128 155.117 10.1606 153.88 15.0022H154.713C155.895 10.4834 157.886 6.31459 161.627 6.31459C164.236 6.31459 165.205 7.81956 165.205 9.54231C165.205 11.2651 163.995 13.3611 163.995 14.8428C163.995 15.4611 164.264 15.7839 164.75 15.7839C165.286 15.7839 166.068 15.325 167.064 11.8562H168.327C167.2 18.2299 164.267 22.2393 161.013 22.2393C158.671 22.2393 156.816 20.6527 156.816 17.6933C156.816 15.9977 157.112 14.4111 158.244 11.8562C158.162 11.6695 158.003 11.4789 157.761 11.4789C156.766 11.4789 155.557 16.2661 154.697 21.5393H147.246L146.869 20.8393C147.864 19.8982 148.914 17.8255 149.369 15.7294H147.324L149.797 7.28291L148.829 6.10071L150.524 0.776917H158.512L159.294 1.55857L159.286 1.55468Z" fill="#101920"/>
</svg>
