<svg width="176" height="50" viewBox="0 0 176 50" fill="none" xmlns="http://www.w3.org/2000/svg">
<path d="M27.449 16.8609V26.3126C27.449 28.0334 26.4158 29.5001 24.9752 30.0639C25.3207 30.53 25.526 31.1003 25.526 31.7196C25.526 36.302 23.0523 40.389 19.3433 42.6412H20.1484C22.0746 42.6412 23.639 44.2088 23.639 46.135C23.639 48.0612 22.0713 49.6256 20.1484 49.6256H5.38094C3.45475 49.6256 1.88708 48.0579 1.88708 46.135C1.88708 44.2121 3.45475 42.6412 5.38094 42.6412H6.18596C2.47373 40.3923 0 36.3053 0 31.7228C0 30.1943 1.24501 28.9493 2.77358 28.9493C2.8355 28.9493 2.90069 28.9525 2.96261 28.959V14.9934C1.36235 13.7875 0.469325 11.8287 0.469325 9.42666C0.469325 5.78614 2.61714 2.73227 6.07515 1.45466C7.13764 1.0603 8.26533 0.864746 9.4256 0.864746C12.2481 0.864746 14.8456 2.24339 16.5209 4.50853C17.2803 4.17935 18.1048 4.00335 18.9457 4.00335C19.1967 4.00335 19.4509 4.01965 19.7051 4.05224C22.7557 4.43357 25.0567 7.03767 25.0567 10.1176C25.0567 11.1117 24.8188 12.0731 24.3755 12.927C26.1225 13.2823 27.449 14.9119 27.449 16.8642" fill="#FFF9F3"/>
<path d="M10.7097 16.3418H15.8788C16.0385 16.3418 16.1298 16.4852 16.0385 16.5895L13.6528 19.2066C13.5583 19.3109 13.6528 19.4543 13.8125 19.4543H16.9152C17.0782 19.4543 17.1695 19.6043 17.0684 19.7053L11.1204 25.7022C11.0096 25.8163 10.7814 25.7576 10.7717 25.6142L10.449 20.0768C10.4425 19.9954 10.3577 19.9269 10.2534 19.9269H8.61733C8.47066 19.9269 8.37615 19.8031 8.44459 19.702L10.537 16.4298C10.5696 16.3776 10.638 16.3451 10.7097 16.3451" fill="#101820"/>
<path d="M23.6617 14.8054H20.6208V13.9319C20.8359 13.8374 21.0478 13.7266 21.2466 13.593C22.4134 12.8173 23.1109 11.5201 23.1109 10.1186C23.1109 8.02298 21.5432 6.24672 19.4671 5.98598C19.2943 5.96317 19.1183 5.95339 18.9456 5.95339C17.7332 5.95339 16.6381 6.47486 15.8754 7.30596C14.7901 4.65297 12.2643 2.81152 9.42549 2.81152C8.49336 2.81152 7.59382 2.96797 6.75295 3.28085C4.0804 4.26839 2.41821 6.62479 2.41821 9.4277C2.41821 12.0155 3.63389 13.3192 4.90824 13.8961V31.5218C4.90824 35.8533 8.43143 39.3765 12.7629 39.3765C17.0944 39.3765 20.6176 35.8533 20.6176 31.5218V28.3734H23.6584C24.672 28.3734 25.4966 27.4478 25.4966 26.3136V16.8619C25.4966 15.7245 24.672 14.8021 23.6584 14.8021L23.6617 14.8054ZM7.05279 33.9401C6.91917 33.6207 6.81161 33.2883 6.73013 32.9461L11.4983 28.1779H12.8151L7.05605 33.9369L7.05279 33.9401ZM6.56391 30.5278V28.1811H8.91054L6.56391 30.5278ZM8.04033 35.5371L15.3996 28.1779H16.7163L8.69543 36.1988C8.46077 35.9934 8.2424 35.7718 8.04033 35.5371ZM13.8091 37.6361L18.8706 32.5745C18.4307 35.1558 16.3904 37.1961 13.8091 37.6361ZM18.9619 29.8759L11.2898 37.5481C10.9443 37.4633 10.6086 37.3493 10.2892 37.2091L18.9619 28.5364V29.8727V29.8759ZM18.9619 26.9231H6.56391V14.2872H18.9619V26.9231ZM20.3275 12.2143C19.9168 12.4848 19.4377 12.6315 18.9423 12.6315H6.66169C6.22822 12.6315 4.07389 12.4783 4.07389 9.43096C4.07389 7.33855 5.32216 5.57858 7.32983 4.83549C7.98818 4.59105 8.69217 4.47046 9.42875 4.47046C12.0068 4.47046 14.3338 6.60523 14.7249 9.32992L14.7347 9.39511C14.7673 9.63629 14.7836 9.88073 14.7836 10.1219H16.4393C16.4393 8.73675 17.5637 7.61232 18.9489 7.61232C19.0532 7.61232 19.1575 7.61884 19.265 7.63188C20.5165 7.78832 21.4617 8.85734 21.4617 10.1219C21.4617 10.966 21.0413 11.7482 20.3373 12.2176L20.3275 12.2143ZM23.854 26.3201C23.854 26.5906 23.704 26.7243 23.6682 26.7243H20.6274V16.4611H23.6682C23.704 16.4611 23.854 16.5947 23.854 16.8652V26.3169V26.3201Z" fill="#101820"/>
<path d="M23.5801 31.7222C23.5801 31.266 23.2086 30.8944 22.7523 30.8944C22.296 30.8944 21.9244 31.266 21.9244 31.7222C21.9244 36.774 17.8146 40.8839 12.7628 40.8839C7.71108 40.8839 3.60123 36.774 3.60123 31.7222C3.60123 31.266 3.22968 30.8944 2.77339 30.8944C2.31711 30.8944 1.94556 31.266 1.94556 31.7222C1.94556 37.4063 6.35525 42.08 11.935 42.5037V44.5896H5.38075C4.52684 44.5896 3.83263 45.2838 3.83263 46.1377C3.83263 46.9916 4.52684 47.6858 5.38075 47.6858H20.1449C20.9988 47.6858 21.693 46.9916 21.693 46.1377C21.693 45.2838 20.9988 44.5896 20.1449 44.5896H13.5907V42.5037C19.1704 42.08 23.5801 37.4063 23.5801 31.7222Z" fill="#101820"/>
<g opacity="0.05">
<g opacity="0.05">
<path opacity="0.05" d="M19.7897 13.4509V31.5199C19.7897 35.4016 16.6446 38.5468 12.7629 38.5468C12.2577 38.5468 11.7656 38.4946 11.293 38.3936C11.293 38.3936 22.5372 22.9613 16.9021 13.4509H19.7897Z" fill="#03035B"/>
</g>
</g>
<g opacity="0.05">
<g opacity="0.05">
<path opacity="0.05" d="M22.2832 10.1077C22.2832 11.2713 21.69 12.2947 20.7872 12.8911C19.0142 13.3343 17.2151 13.4289 16.3123 13.4452C15.9343 13.4517 15.7126 13.4452 15.7126 13.4452C15.8169 13.4256 24.2615 11.695 19.3629 6.79639C21.0088 7.00172 22.2832 8.40643 22.2832 10.1077Z" fill="#03035B"/>
</g>
</g>
<path d="M53.4997 36.4333C53.4997 39.1385 50.9282 41.6872 48.2035 41.6872C46.1535 41.6872 44.4391 40.7616 43.6276 39.2069C42.6824 40.8984 41.3494 41.7556 39.7035 41.7556C37.2917 41.7556 35.4666 40.201 35.4666 38.1477C35.4666 37.8772 35.4894 37.5382 35.5806 37.0428C35.8968 37.0884 36.1901 37.1113 36.4606 37.1113C37.7904 37.1113 38.5335 36.593 38.9181 35.4425L39.9089 32.5582C39.2114 32.8059 38.5563 32.9199 37.924 32.9199C36.1217 32.9199 34.9255 31.7694 34.9255 30.0355C34.9255 26.3168 39.772 23.5432 46.2871 23.5432C51.4953 23.5432 54.6958 25.3455 54.6958 28.2756C54.6958 30.3712 53.0043 32.2192 50.5469 32.8287C52.2384 33.1676 53.4997 34.7223 53.4997 36.4366V36.4333ZM46.9389 25.5248L47.0302 25.0978C46.6912 25.0522 46.3327 25.0294 45.8569 25.0294C42.4087 25.0294 39.5015 28.0963 39.5015 30.4169C39.5015 31.0263 39.7492 31.4305 40.2217 31.613C41.6427 27.4412 43.7156 25.3456 46.9389 25.5248ZM47.2551 33.7543C47.2551 32.8515 46.7369 32.0856 46.0166 31.8835L44.7976 36.6387C44.4815 37.9 44.6184 38.6235 45.0454 38.6235C45.971 38.6235 47.2551 35.8043 47.2551 33.7543ZM48.7217 26.9458C48.7217 25.9094 48.3371 25.2999 47.6853 25.2543L46.1307 31.362C47.3496 31.4077 48.7217 29.0839 48.7217 26.9426" fill="#101820"/>
<path d="M62.1335 28.9084L61.2307 32.5392C60.6212 35.0194 60.4191 36.0102 60.4191 36.6425C60.4191 37.1151 60.5332 37.34 60.7809 37.34C61.5696 37.34 62.6289 34.0938 63.5316 28.9084H70.024C68.7855 32.5392 68.4009 34.5664 68.4009 35.4692C68.4009 36.1015 68.5573 36.4828 68.9419 36.4828C69.3917 36.4828 70.0468 36.0982 70.8811 33.191H71.9404C70.9952 38.5329 68.5606 41.8931 65.7414 41.8931C63.9162 41.8931 63.1731 40.4721 63.1731 38.6926C63.1731 38.0179 63.2872 37.2944 63.4665 36.5741H63.0395C62.1139 39.9571 60.1551 41.7595 57.9226 41.7595C55.8921 41.7595 54.4743 40.3156 54.4743 38.2428C54.4743 37.2748 54.7905 36.2579 55.3771 35.29L54.3635 34.5697L55.8725 28.9117H62.14L62.1335 28.9084Z" fill="#101820"/>
<path d="M79.1073 28.8112L78.0252 32.3963H77.1908C76.8519 33.2078 76.5814 34.4268 76.5814 35.1471C76.5814 36.0042 76.8975 36.454 77.4842 36.454C78.2501 36.454 78.7683 35.486 79.4462 33.185H80.5055C80.2121 34.6289 79.9644 35.6197 79.6939 36.4084C78.6575 39.4981 76.1772 41.685 73.7198 41.685C72.3216 41.685 71.2396 41.1668 70.2944 40.0391C70.9495 39.182 71.5785 37.7414 71.849 36.4312H69.9326L71.1059 32.3963H69.9782L71.0603 28.8112C72.8203 28.8112 74.1272 27.7519 75.1636 25.4966H78.2762L77.2397 28.8112H79.1105H79.1073Z" fill="#101820"/>
<path d="M78.9738 39.772C79.5376 38.892 80.0787 37.6764 80.3264 36.4346H78.1851C78.2307 34.2933 78.8173 31.9728 80.1243 30.5061C81.3432 29.1307 83.1912 28.2964 85.1956 28.2964C88.5982 28.2964 90.4266 29.9879 90.4266 32.1292C90.4266 34.8343 88.3766 36.5259 85.2869 36.5259C84.9251 36.5259 84.5666 36.503 84.2048 36.4574C84.3384 37.6764 85.15 38.3738 86.571 38.3738C88.9372 38.3738 91.0133 36.2325 91.8248 33.1884H92.884C91.5771 41.0105 86.8871 42.2718 84.1135 42.2718C81.34 42.2718 79.5833 40.6716 78.9738 39.7688V39.772ZM84.4525 35.056C85.7138 35.056 86.4602 32.869 86.4602 31.6729C86.4602 31.2003 86.3461 30.8842 86.1212 30.8842C85.4237 30.8842 84.4297 33.1852 84.2732 35.0332C84.3417 35.056 84.3873 35.056 84.4525 35.056Z" fill="#101820"/>
<path d="M99.4187 30.9103C99.4187 31.1352 99.3959 31.3601 99.3503 31.6078H99.7348L100.973 28.9483H103.995L102.078 35.597H97.8869C98.2258 34.515 98.6072 33.094 98.6072 32.214C98.6072 31.673 98.4735 31.334 98.1346 31.334C97.3915 31.334 96.6451 33.2276 96.6451 35.0528C96.6451 36.7443 97.2774 38.3674 99.1482 38.3674C101.514 38.3674 103.59 36.2261 104.402 33.182H105.461C104.154 41.0041 99.4643 42.2654 96.8276 42.2654C93.8748 42.2654 92.1605 40.7564 91.3717 39.6287C91.89 38.7715 92.4082 37.4874 92.633 36.4281H90.583C90.7851 32.0087 92.7015 28.2899 96.6256 28.2899C98.3171 28.2899 99.422 29.3492 99.422 30.9038" fill="#101820"/>
<path d="M119.753 33.1853C119.143 36.5879 117.634 40.7825 115.085 40.7825C114.544 40.7825 114.026 40.6033 113.576 40.2871C112.38 41.392 110.487 42.1351 108.886 42.1351C106.768 42.1351 105.076 41.3236 103.972 39.7689C104.669 38.6869 105.076 37.6732 105.324 36.4315H103.183C103.385 31.5166 106.338 28.1792 110.51 28.1792C114.049 28.1792 116.259 30.1869 116.259 33.4102C116.259 34.313 116.08 35.3038 115.741 36.363C116.011 36.6107 116.373 36.6107 116.506 36.6107C117.139 36.6107 117.859 36.0925 118.693 33.1853H119.753ZM113.035 31.0212C112.811 30.842 112.563 30.7507 112.27 30.7507C110.738 30.7507 109.023 34.0425 109.023 36.9269C109.023 37.9861 109.339 38.55 109.835 38.55C110.33 38.55 110.985 37.9177 111.233 37.1518C111.077 36.7248 110.985 36.1154 110.985 35.4603C110.985 33.433 111.797 31.6731 113.035 31.018" fill="#101820"/>
<path d="M136.616 25.548C136.616 26.5388 135.804 27.4644 134.25 27.4644C134.071 27.4644 133.888 27.4416 133.686 27.4188L131.431 35.6711C130.596 38.7151 129.133 41.8016 124.961 41.8016C121.444 41.8016 119.482 40.0221 119.482 37.5646C119.482 35.469 120.991 33.3733 123.09 33.3733C124.42 33.3733 124.961 34.1164 124.961 34.9736C124.961 35.2669 124.893 35.5831 124.782 35.8764L125.3 36.0133L127.08 29.7458C127.598 27.8979 128.501 26.4769 129.808 26.5225L129.899 26.2748C129.312 26.0955 128.771 26.0043 128.299 26.0043C126.226 26.0043 125.209 27.6045 125.209 29.0027C125.209 29.7002 125.457 30.3325 125.906 30.7171L125.251 32.7899C124.958 32.8584 124.687 32.8812 124.44 32.8812C121.396 32.8812 119.818 30.5606 119.818 28.214C119.818 25.8674 121.441 23.436 124.801 23.436C127.305 23.436 128.928 24.7886 131.271 25.8478C132.376 26.3432 133.119 26.5225 133.908 26.5225C134.876 26.5225 135.462 26.1183 135.417 25.6197C135.078 25.8902 134.582 26.0238 133.996 26.0238C132.914 26.0238 131.515 25.5741 130.163 24.6941C130.795 23.7685 132.079 23.2502 133.455 23.2502C135.55 23.2502 136.61 24.4236 136.61 25.5512L136.616 25.548ZM124.955 36.8215C124.798 36.7075 124.638 36.6423 124.482 36.6423C123.625 36.6423 122.95 38.4218 122.95 39.4811C122.95 39.908 123.064 40.2242 123.335 40.2242C124.009 40.2242 124.642 38.1937 124.958 36.8215" fill="#101820"/>
<path d="M145.406 32.126C145.406 34.8311 143.356 36.5227 140.266 36.5227C139.904 36.5227 139.546 36.4998 139.184 36.4542C139.318 37.6732 140.129 38.3706 141.55 38.3706C143.916 38.3706 145.992 36.2293 146.804 33.1852H147.863C146.556 41.0073 141.798 42.2686 139.028 42.2686C134.52 42.2686 133.008 38.8204 133.008 36.0012C133.008 34.1304 133.663 31.9891 134.947 30.4997C136.166 29.1015 137.991 28.2899 140.178 28.2899C143.581 28.2899 145.409 29.9814 145.409 32.1227L145.406 32.126ZM139.435 35.0528C140.696 35.0528 141.443 32.8658 141.443 31.6697C141.443 31.1971 141.329 30.881 141.104 30.881C140.406 30.881 139.412 33.182 139.256 35.0299C139.324 35.0528 139.37 35.0528 139.435 35.0528Z" fill="#101820"/>
<path d="M154.401 30.9103C154.401 31.1352 154.379 31.3601 154.333 31.6078H154.717L155.956 28.9483H158.977L157.061 35.597H152.87C153.208 34.515 153.59 33.094 153.59 32.214C153.59 31.673 153.456 31.334 153.117 31.334C152.374 31.334 151.628 33.2276 151.628 35.0528C151.628 36.7443 152.26 38.3674 154.131 38.3674C156.497 38.3674 158.573 36.2261 159.385 33.182H160.444C159.137 41.0041 154.447 42.2654 151.81 42.2654C148.857 42.2654 147.143 40.7564 146.354 39.6287C146.873 38.7715 147.391 37.4874 147.616 36.4281H145.566C145.768 32.0087 147.684 28.2899 151.608 28.2899C153.3 28.2899 154.405 29.3492 154.405 30.9038" fill="#101820"/>
<path d="M168.422 24.5532C166.933 27.6429 164.928 31.7658 163.892 35.8235H164.589C165.58 32.0363 167.249 28.5425 170.384 28.5425C172.571 28.5425 173.383 29.8038 173.383 31.2476C173.383 32.6914 172.369 34.4481 172.369 35.6899C172.369 36.2081 172.594 36.4786 173.001 36.4786C173.451 36.4786 174.106 36.094 174.941 33.1868H176C175.055 38.5287 172.597 41.8889 169.869 41.8889C167.907 41.8889 166.353 40.5591 166.353 38.0789C166.353 36.6579 166.6 35.3281 167.549 33.1868C167.48 33.0304 167.347 32.8707 167.145 32.8707C166.31 32.8707 165.297 36.8828 164.576 41.3022H158.332L158.016 40.7156C158.85 39.9268 159.73 38.1897 160.111 36.433H158.397L160.47 29.354L159.658 28.3632L161.079 23.9014H167.774L168.429 24.5565L168.422 24.5532Z" fill="#101820"/>
</svg>
