<svg width="176" height="49" viewBox="0 0 176 49" fill="none" xmlns="http://www.w3.org/2000/svg">
<path d="M27.4487 15.9961V25.4478C27.4487 27.1686 26.4156 28.6353 24.975 29.1991C25.3205 29.6652 25.5258 30.2355 25.5258 30.8548C25.5258 35.4372 23.0521 39.5242 19.3431 41.7763H20.1481C22.0743 41.7763 23.6387 43.344 23.6387 45.2702C23.6387 47.1964 22.071 48.7608 20.1481 48.7608H5.38069C3.45451 48.7608 1.88683 47.1931 1.88683 45.2702C1.88683 43.3473 3.45451 41.7763 5.38069 41.7763H6.18571C2.47349 39.5275 -0.000244141 35.4405 -0.000244141 30.858C-0.000244141 29.3295 1.24477 28.0845 2.77333 28.0845C2.83526 28.0845 2.90044 28.0877 2.96237 28.0942V14.1286C1.3621 12.9227 0.46908 10.9639 0.46908 8.56185C0.46908 4.92133 2.61689 1.86746 6.0749 0.589854C7.1374 0.195491 8.26508 -6.10352e-05 9.42536 -6.10352e-05C12.2478 -6.10352e-05 14.8454 1.37858 16.5206 3.64372C17.28 3.31454 18.1046 3.13855 18.9455 3.13855C19.1964 3.13855 19.4507 3.15484 19.7049 3.18744C22.7555 3.56876 25.0565 6.17286 25.0565 9.2528C25.0565 10.2469 24.8186 11.2083 24.3753 12.0622C26.1222 12.4175 27.4487 14.0471 27.4487 15.9993" fill="white"/>
<path d="M10.7095 15.4771H15.8786C16.0383 15.4771 16.1295 15.6205 16.0383 15.7247L13.6525 18.3419C13.558 18.4462 13.6525 18.5896 13.8122 18.5896H16.915C17.078 18.5896 17.1692 18.7395 17.0682 18.8405L11.1201 24.8375C11.0093 24.9515 10.7812 24.8929 10.7714 24.7495L10.4488 19.2121C10.4422 19.1306 10.3575 19.0622 10.2532 19.0622H8.61708C8.47042 19.0622 8.3759 18.9383 8.44435 18.8373L10.5368 15.565C10.5693 15.5129 10.6378 15.4803 10.7095 15.4803" fill="#101820"/>
<path d="M23.6614 13.9406H20.6206V13.0672C20.8357 12.9726 21.0476 12.8618 21.2464 12.7282C22.4132 11.9525 23.1106 10.6554 23.1106 9.2539C23.1106 7.15824 21.5429 5.38197 19.4668 5.12124C19.2941 5.09842 19.1181 5.08865 18.9454 5.08865C17.7329 5.08865 16.6379 5.61012 15.8752 6.44121C14.7899 3.78822 12.264 1.94678 9.42525 1.94678C8.49311 1.94678 7.59358 2.10322 6.7527 2.4161C4.08016 3.40364 2.41797 5.76004 2.41797 8.56295C2.41797 11.1508 3.63365 12.4544 4.908 13.0313V30.6571C4.908 34.9885 8.43119 38.5117 12.7627 38.5117C17.0941 38.5117 20.6173 34.9885 20.6173 30.6571V27.5087H23.6582C24.6718 27.5087 25.4964 26.5831 25.4964 25.4489V15.9972C25.4964 14.8597 24.6718 13.9374 23.6582 13.9374L23.6614 13.9406ZM7.05255 33.0754C6.91892 32.756 6.81137 32.4235 6.72989 32.0813L11.4981 27.3131H12.8148L7.05581 33.0721L7.05255 33.0754ZM6.56367 29.663V27.3164H8.91029L6.56367 29.663ZM8.04009 34.6724L15.3994 27.3131H16.7161L8.69519 35.334C8.46052 35.1287 8.24216 34.9071 8.04009 34.6724ZM13.8089 36.7713L18.8704 31.7098C18.4304 34.2911 16.3902 36.3313 13.8089 36.7713ZM18.9617 29.0112L11.2895 36.6833C10.944 36.5986 10.6083 36.4845 10.2889 36.3444L18.9617 27.6716V29.0079V29.0112ZM18.9617 26.0583H6.56367V13.4224H18.9617V26.0583ZM20.3273 11.3496C19.9166 11.6201 19.4375 11.7667 18.9421 11.7667H6.66145C6.22797 11.7667 4.07364 11.6136 4.07364 8.56621C4.07364 6.47381 5.32191 4.71384 7.32958 3.97074C7.98794 3.7263 8.69193 3.60571 9.4285 3.60571C12.0065 3.60571 14.3336 5.74049 14.7247 8.46518L14.7345 8.53036C14.7671 8.77154 14.7834 9.01598 14.7834 9.25716H16.439C16.439 7.872 17.5635 6.74758 18.9486 6.74758C19.0529 6.74758 19.1572 6.7541 19.2648 6.76713C20.5163 6.92357 21.4615 7.99259 21.4615 9.25716C21.4615 10.1013 21.041 10.8835 20.337 11.3528L20.3273 11.3496ZM23.8537 25.4554C23.8537 25.7259 23.7038 25.8595 23.6679 25.8595H20.6271V15.5963H23.6679C23.7038 15.5963 23.8537 15.7299 23.8537 16.0004V25.4521V25.4554Z" fill="#101820"/>
<path d="M23.5799 30.8575C23.5799 30.4012 23.2083 30.0297 22.752 30.0297C22.2957 30.0297 21.9242 30.4012 21.9242 30.8575C21.9242 35.9093 17.8144 40.0191 12.7626 40.0191C7.71083 40.0191 3.60099 35.9093 3.60099 30.8575C3.60099 30.4012 3.22944 30.0297 2.77315 30.0297C2.31686 30.0297 1.94531 30.4012 1.94531 30.8575C1.94531 36.5415 6.35501 41.2152 11.9348 41.6389V43.7248H5.38051C4.5266 43.7248 3.83239 44.419 3.83239 45.2729C3.83239 46.1268 4.5266 46.8211 5.38051 46.8211H20.1447C20.9986 46.8211 21.6928 46.1268 21.6928 45.2729C21.6928 44.419 20.9986 43.7248 20.1447 43.7248H13.5904V41.6389C19.1702 41.2152 23.5799 36.5415 23.5799 30.8575Z" fill="#101820"/>
<g opacity="0.05">
<g opacity="0.05">
<path opacity="0.05" d="M19.7895 12.5861V30.6551C19.7895 34.5368 16.6443 37.6819 12.7626 37.6819C12.2574 37.6819 11.7653 37.6297 11.2927 37.5287C11.2927 37.5287 22.537 22.0964 16.9018 12.5861H19.7895Z" fill="#03035B"/>
</g>
</g>
<g opacity="0.05">
<g opacity="0.05">
<path opacity="0.05" d="M22.2829 9.24299C22.2829 10.4065 21.6898 11.4299 20.787 12.0263C19.014 12.4696 17.2149 12.5641 16.3121 12.5804C15.934 12.5869 15.7124 12.5804 15.7124 12.5804C15.8167 12.5609 24.2613 10.8302 19.3627 5.93164C21.0086 6.13697 22.2829 7.54168 22.2829 9.24299Z" fill="#03035B"/>
</g>
</g>
<path d="M53.4995 35.5686C53.4995 38.2737 50.928 40.8224 48.2033 40.8224C46.1532 40.8224 44.4389 39.8968 43.6274 38.3422C42.6822 40.0337 41.3492 40.8909 39.7033 40.8909C37.2915 40.8909 35.4663 39.3362 35.4663 37.2829C35.4663 37.0124 35.4891 36.6735 35.5804 36.1781C35.8965 36.2237 36.1899 36.2465 36.4604 36.2465C37.7901 36.2465 38.5332 35.7283 38.9178 34.5778L39.9086 31.6934C39.2111 31.9411 38.556 32.0552 37.9238 32.0552C36.1214 32.0552 34.9253 30.9047 34.9253 29.1708C34.9253 25.452 39.7717 22.6785 46.2869 22.6785C51.4951 22.6785 54.6956 24.4808 54.6956 27.4108C54.6956 29.5065 53.0041 31.3545 50.5466 31.9639C52.2382 32.3029 53.4995 33.8575 53.4995 35.5719V35.5686ZM46.9387 24.6601L47.03 24.2331C46.691 24.1875 46.3325 24.1647 45.8566 24.1647C42.4084 24.1647 39.5012 27.2316 39.5012 29.5521C39.5012 30.1616 39.7489 30.5657 40.2215 30.7482C41.6425 26.5765 43.7154 24.4808 46.9387 24.6601ZM47.2548 32.8895C47.2548 31.9867 46.7366 31.2208 46.0163 31.0188L44.7974 35.7739C44.4813 37.0352 44.6182 37.7588 45.0451 37.7588C45.9707 37.7588 47.2548 34.9396 47.2548 32.8895ZM48.7215 26.0811C48.7215 25.0446 48.3369 24.4352 47.6851 24.3895L46.1304 30.4973C47.3494 30.5429 48.7215 28.2191 48.7215 26.0778" fill="white"/>
<path d="M62.1332 28.0437L61.2304 31.6744C60.6209 34.1547 60.4189 35.1455 60.4189 35.7778C60.4189 36.2504 60.5329 36.4753 60.7806 36.4753C61.5694 36.4753 62.6286 33.2291 63.5314 28.0437H70.0237C68.7852 31.6744 68.4007 33.7017 68.4007 34.6045C68.4007 35.2368 68.5571 35.6181 68.9417 35.6181C69.3914 35.6181 70.0465 35.2335 70.8809 32.3263H71.9401C70.995 37.6681 68.5604 41.0284 65.7411 41.0284C63.916 41.0284 63.1729 39.6073 63.1729 37.8278C63.1729 37.1532 63.287 36.4296 63.4662 35.7093H63.0393C62.1137 39.0924 60.1549 40.8947 57.9223 40.8947C55.8918 40.8947 54.4741 39.4509 54.4741 37.378C54.4741 36.4101 54.7902 35.3932 55.3769 34.4252L54.3633 33.7049L55.8723 28.047H62.1397L62.1332 28.0437Z" fill="white"/>
<path d="M79.107 27.9464L78.025 31.5316H77.1906C76.8516 32.3431 76.5811 33.562 76.5811 34.2823C76.5811 35.1395 76.8973 35.5893 77.4839 35.5893C78.2498 35.5893 78.7681 34.6213 79.446 32.3203H80.5052C80.2119 33.7641 79.9642 34.7549 79.6937 35.5436C78.6572 38.6334 76.177 40.8203 73.7196 40.8203C72.3214 40.8203 71.2393 40.3021 70.2941 39.1744C70.9492 38.3172 71.5783 36.8766 71.8488 35.5664H69.9324L71.1057 31.5316H69.978L71.0601 27.9464C72.82 27.9464 74.127 26.8872 75.1634 24.6318H78.2759L77.2395 27.9464H79.1103H79.107Z" fill="white"/>
<path d="M78.9735 38.9073C79.5374 38.0273 80.0784 36.8116 80.3261 35.5699H78.1848C78.2304 33.4286 78.8171 31.108 80.124 29.6414C81.343 28.266 83.1909 27.4316 85.1953 27.4316C88.598 27.4316 90.4264 29.1232 90.4264 31.2645C90.4264 33.9696 88.3763 35.6611 85.2866 35.6611C84.9248 35.6611 84.5663 35.6383 84.2046 35.5927C84.3382 36.8116 85.1497 37.5091 86.5707 37.5091C88.9369 37.5091 91.013 35.3678 91.8246 32.3237H92.8838C91.5769 40.1458 86.8869 41.4071 84.1133 41.4071C81.3397 41.4071 79.583 39.8068 78.9735 38.904V38.9073ZM84.4523 34.1912C85.7136 34.1912 86.4599 32.0043 86.4599 30.8082C86.4599 30.3356 86.3458 30.0194 86.121 30.0194C85.4235 30.0194 84.4294 32.3204 84.273 34.1684C84.3414 34.1912 84.3871 34.1912 84.4523 34.1912Z" fill="white"/>
<path d="M99.4185 30.0456C99.4185 30.2705 99.3956 30.4953 99.35 30.743H99.7346L100.973 28.0835H103.994L102.078 34.7323H97.8866C98.2256 33.6502 98.6069 32.2292 98.6069 31.3492C98.6069 30.8082 98.4733 30.4693 98.1343 30.4693C97.3912 30.4693 96.6449 32.3629 96.6449 34.188C96.6449 35.8795 97.2772 37.5026 99.1479 37.5026C101.514 37.5026 103.59 35.3613 104.402 32.3172H105.461C104.154 40.1393 99.4641 41.4006 96.8274 41.4006C93.8746 41.4006 92.1602 39.8916 91.3715 38.7639C91.8897 37.9068 92.4079 36.6226 92.6328 35.5634H90.5828C90.7848 31.1439 92.7012 27.4252 96.6253 27.4252C98.3168 27.4252 99.4217 28.4844 99.4217 30.039" fill="white"/>
<path d="M119.752 32.3206C119.143 35.7232 117.634 39.9178 115.085 39.9178C114.544 39.9178 114.026 39.7385 113.576 39.4224C112.38 40.5272 110.486 41.2703 108.886 41.2703C106.768 41.2703 105.076 40.4588 103.971 38.9042C104.669 37.8221 105.076 36.8085 105.324 35.5667H103.183C103.385 30.6519 106.338 27.3145 110.509 27.3145C114.049 27.3145 116.259 29.3221 116.259 32.5455C116.259 33.4483 116.079 34.4391 115.74 35.4983C116.011 35.746 116.373 35.746 116.506 35.746C117.139 35.746 117.859 35.2278 118.693 32.3206H119.752ZM113.035 30.1565C112.81 29.9772 112.563 29.886 112.269 29.886C110.737 29.886 109.023 33.1778 109.023 36.0621C109.023 37.1214 109.339 37.6852 109.835 37.6852C110.33 37.6852 110.985 37.0529 111.233 36.287C111.076 35.8601 110.985 35.2506 110.985 34.5955C110.985 32.5683 111.797 30.8083 113.035 30.1532" fill="white"/>
<path d="M136.616 24.6832C136.616 25.674 135.804 26.5996 134.25 26.5996C134.07 26.5996 133.888 26.5768 133.686 26.554L131.43 34.8062C130.596 37.8503 129.133 40.9368 124.961 40.9368C121.444 40.9368 119.482 39.1573 119.482 36.6998C119.482 34.6042 120.991 32.5085 123.09 32.5085C124.42 32.5085 124.961 33.2516 124.961 34.1088C124.961 34.4021 124.892 34.7182 124.782 35.0116L125.3 35.1485L127.079 28.881C127.598 27.0331 128.5 25.612 129.807 25.6577L129.899 25.41C129.312 25.2307 128.771 25.1395 128.298 25.1395C126.225 25.1395 125.209 26.7397 125.209 28.1379C125.209 28.8354 125.456 29.4677 125.906 29.8523L125.251 31.9251C124.958 31.9936 124.687 32.0164 124.439 32.0164C121.395 32.0164 119.818 29.6958 119.818 27.3492C119.818 25.0026 121.441 22.5712 124.801 22.5712C127.304 22.5712 128.927 23.9238 131.271 24.983C132.376 25.4784 133.119 25.6577 133.907 25.6577C134.875 25.6577 135.462 25.2535 135.416 24.7549C135.077 25.0254 134.582 25.159 133.995 25.159C132.913 25.159 131.515 24.7092 130.163 23.8293C130.795 22.9036 132.079 22.3854 133.454 22.3854C135.55 22.3854 136.609 23.5588 136.609 24.6864L136.616 24.6832ZM124.954 35.9567C124.798 35.8427 124.638 35.7775 124.482 35.7775C123.625 35.7775 122.95 37.557 122.95 38.6162C122.95 39.0432 123.064 39.3593 123.335 39.3593C124.009 39.3593 124.641 37.3289 124.958 35.9567" fill="white"/>
<path d="M145.406 31.2612C145.406 33.9664 143.356 35.6579 140.266 35.6579C139.904 35.6579 139.546 35.6351 139.184 35.5895C139.318 36.8084 140.129 37.5059 141.55 37.5059C143.916 37.5059 145.992 35.3646 146.804 32.3205H147.863C146.556 40.1426 141.798 41.4039 139.028 41.4039C134.52 41.4039 133.008 37.9556 133.008 35.1364C133.008 33.2657 133.663 31.1244 134.947 29.6349C136.166 28.2367 137.991 27.4252 140.178 27.4252C143.581 27.4252 145.409 29.1167 145.409 31.258L145.406 31.2612ZM139.435 34.188C140.696 34.188 141.443 32.0011 141.443 30.805C141.443 30.3324 141.329 30.0162 141.104 30.0162C140.406 30.0162 139.412 32.3172 139.256 34.1652C139.324 34.188 139.37 34.188 139.435 34.188Z" fill="white"/>
<path d="M154.401 30.0456C154.401 30.2705 154.378 30.4953 154.333 30.743H154.717L155.956 28.0835H158.977L157.061 34.7323H152.869C153.208 33.6502 153.59 32.2292 153.59 31.3492C153.59 30.8082 153.456 30.4693 153.117 30.4693C152.374 30.4693 151.628 32.3629 151.628 34.188C151.628 35.8795 152.26 37.5026 154.131 37.5026C156.497 37.5026 158.573 35.3613 159.384 32.3172H160.444C159.137 40.1393 154.447 41.4006 151.81 41.4006C148.857 41.4006 147.143 39.8916 146.354 38.7639C146.872 37.9068 147.391 36.6226 147.615 35.5634H145.565C145.768 31.1439 147.684 27.4252 151.608 27.4252C153.3 27.4252 154.404 28.4844 154.404 30.039" fill="white"/>
<path d="M168.422 23.6884C166.933 26.7781 164.928 30.901 163.892 34.9587H164.589C165.58 31.1715 167.249 27.6777 170.384 27.6777C172.571 27.6777 173.383 28.939 173.383 30.3828C173.383 31.8266 172.369 33.5833 172.369 34.8251C172.369 35.3433 172.594 35.6138 173.001 35.6138C173.451 35.6138 174.106 35.2292 174.94 32.322H176C175.054 37.6638 172.597 41.0241 169.869 41.0241C167.907 41.0241 166.352 39.6943 166.352 37.2141C166.352 35.7931 166.6 34.4633 167.549 32.322C167.48 32.1656 167.346 32.0059 167.144 32.0059C166.31 32.0059 165.296 36.0179 164.576 40.4374H158.332L158.015 39.8508C158.85 39.062 159.73 37.3249 160.111 35.5682H158.397L160.47 28.4892L159.658 27.4984L161.079 23.0366H167.773L168.429 23.6917L168.422 23.6884Z" fill="white"/>
</svg>
