<svg width="162" height="237" viewBox="0 0 162 237" fill="none" xmlns="http://www.w3.org/2000/svg">
<path fill-rule="evenodd" clip-rule="evenodd" d="M150.388 160.587C149.709 158.723 150.7 156.864 151.25 155.06C153.205 148.807 155.338 142.553 158.357 136.721C159.501 134.77 157.62 132.376 155.44 132.927C151.708 133.449 147.859 133.033 144.121 132.802C142.754 129.266 139.104 127.8 136.233 125.763C132.973 123.73 129.803 121.394 126.414 119.612C126.225 117.927 124.182 117.51 122.933 118.715C119.501 116.581 115.386 116.977 111.708 115.579C108.913 111.063 108.703 106.314 107.963 101.957C107.64 100.058 107.983 98.2253 106.685 96.532C102.324 90.4005 85.0922 87.742 78.739 91.3755C75.3191 89.2434 75.2367 93.1048 74.6935 95.488C74.0898 96.6804 73.7632 98.0307 73.8641 99.4534C70.1907 107.123 61.7865 110.591 54.26 113.4C53.3158 112.492 51.9663 112.606 51.0679 113.358C44.5441 114.776 38.2126 117.268 32.7467 121.159C26.5368 122.974 22.1634 128.023 19.001 133.437C18.6525 134.008 18.5704 134.589 18.6722 135.124C8.9473 149.374 4.30588 166.434 3.65393 183.664C-2.59984 187.416 6.62637 221.12 8.77416 228.118C8.77632 228.117 8.77848 228.116 8.78064 228.115C10.174 230.581 11.7561 237.617 15.2432 237.073C17.6353 239.777 21.4473 239.245 24.6934 239.453C24.1646 241.48 24.4245 243.8 25.0537 245.803C25.798 248.188 29.4502 248.269 29.9682 245.669C62.2938 251.947 95.4614 246.938 128.15 247.88C137.602 247.947 147.053 248.239 156.481 248.912C157.809 249.007 159.155 247.651 159.065 246.329C157.037 224.77 155.134 196.409 152.867 175.061C152.329 170.192 151.904 165.27 150.388 160.587Z" fill="white"/>
<path fill-rule="evenodd" clip-rule="evenodd" d="M75.2266 92.7019C75.3193 92.4491 75.6972 92.4826 75.7043 92.7665C75.8532 98.8283 74.3436 106.236 69.4912 110.331C67.0003 112.432 63.7071 113.394 60.6829 114.5L60.3417 114.625L54.9986 116.615C53.5815 117.143 52.0528 117.955 50.801 117.209C51.8139 119.72 52.6643 122.3 53.8979 124.72C55.4335 127.733 57.2902 130.489 59.5624 132.995C68.5647 142.927 82.8119 145.956 95.5972 143.046C102.181 141.547 108.587 138.708 113.079 133.528C116.493 129.591 118.454 124.307 118.916 119.095C118.781 119.116 118.639 119.115 118.494 119.084C116.876 118.731 115.243 117.864 113.819 117.014L113.682 116.932C112.313 116.108 110.885 115.163 109.902 113.883C109.252 113.035 108.585 111.228 107.902 108.463C107.623 106.904 107.361 103.798 107.406 102.222C107.41 102.073 108.07 101.986 108.14 102.14C108.75 103.478 108.947 106.417 109.418 107.81L109.513 108.088C110.015 109.542 110.446 111.312 111.489 112.488C113.445 114.695 116.397 115.629 119.032 116.736C119.221 114.242 123.207 114.3 123.156 116.902C123.154 117.043 123.147 117.183 123.142 117.324C123.457 117.497 123.759 117.694 124.042 117.885L124.317 118.072C125.361 118.782 126.413 119.456 127.524 120.058C129.675 121.224 131.953 122.148 134.157 123.206C136.388 124.277 138.473 125.552 140.421 127.079C141.335 127.796 142.212 128.559 143.044 129.371L143.27 129.593C144.062 130.382 145.092 131.263 145.543 132.299C145.643 132.527 146.141 133.058 146.411 133.076C150.599 133.351 154.779 133.738 158.941 134.319C160.018 134.47 160.444 135.025 160.046 135.923C158.677 139.008 153.319 151.329 151.894 154.636C152.06 157.065 151.836 159.925 151.986 162.355C152.205 165.901 152.492 169.446 152.837 172.982C154.069 185.631 155.937 198.218 157.624 210.812C158.469 217.115 159.239 223.427 160 229.74C160.383 232.93 160.709 236.124 160.96 239.328C161.064 240.663 161.159 241.999 161.243 243.336L161.315 244.521C161.414 246.013 161.643 247.438 160.719 248.719C160.3 249.3 159.344 249.627 158.793 248.967C158.101 248.137 157.844 247.518 157.778 246.428C157.727 245.594 157.715 244.756 157.677 243.921C157.595 242.111 157.492 240.302 157.371 238.494C157.129 234.88 156.854 231.266 156.534 227.658C155.415 215.005 153.288 202.448 151.873 189.827C151.16 183.464 150.653 177.089 150.385 170.691C150.251 167.496 150.202 164.301 150.234 161.104C150.245 159.909 150.302 158.72 150.384 157.534C148.264 162.348 146.035 167.117 143.705 171.821L143.153 172.936C141.676 175.909 140.159 178.894 138.385 181.698L138.08 182.176C137.36 183.314 136.378 185.11 135.067 185.469C134.154 185.72 133.038 185.543 132.101 185.525C131.172 185.508 130.242 185.504 129.313 185.466C128.271 185.424 127.277 185.287 126.271 185.016C126.103 184.971 125.945 184.922 125.801 184.86C124.787 186.519 123.064 187.783 121.302 188.519C119.89 189.109 118.411 189.513 116.93 189.887L116.407 190.018C114.818 190.414 113.001 190.602 112.106 192.135L111.897 192.491C111.231 193.622 110.592 194.615 109.49 195.426C108.304 196.299 106.898 196.848 105.498 197.276C104.064 197.713 102.597 198.048 101.141 198.407L100.744 198.505C99.783 198.746 98.8133 198.966 97.8579 199.228C97.4504 199.339 97.0356 199.454 96.6357 199.592C96.1675 199.753 95.8272 200.004 95.4578 200.277C95.1258 201.436 93.7067 202.066 92.5398 201.985C91.927 201.943 91.3773 201.735 90.8771 201.43C90.0041 202.173 89.0428 202.839 88.1528 203.527C86.9067 204.491 85.6555 205.448 84.3975 206.396C81.8035 208.35 79.1899 210.279 76.5491 212.169C71.8616 215.525 67.0728 218.727 62.202 221.811C60.1712 223.097 58.1267 224.38 56.0621 225.633L56.2825 225.715L56.7195 225.88C57.7525 226.265 58.9036 226.888 59.1038 228.093C59.2624 229.049 58.7285 229.707 57.7847 229.824C56.6631 229.962 55.7902 229.17 55.0918 228.414C54.7835 228.08 54.4385 227.771 54.1433 227.427C54.0229 227.287 53.9304 227.125 53.8489 226.956C51.8114 228.156 49.7522 229.316 47.6605 230.4L47.1368 230.67C41.9496 233.322 36.9007 236.227 31.6694 238.803C30.3047 239.475 28.6409 240.202 26.9067 240.698C27.3669 242.481 27.3598 244.439 27.3714 246.248C27.3825 248.012 24.5786 248.004 24.6378 246.248L24.6664 245.401C24.7174 243.975 24.8008 242.496 25.1391 241.109C20.0294 241.956 14.9248 240.115 13.9744 239.562C12.9253 238.952 11.9732 237.976 11.1807 237.071C9.48492 235.134 8.30813 232.811 7.26407 230.475C5.02766 225.471 3.4432 220.122 2.28479 214.774C-1.98592 195.052 -0.148976 173.945 6.78657 155.04C8.51932 150.317 10.5651 145.698 12.9094 141.246L13.2004 140.695C15.5398 136.293 18.1397 131.907 21.4423 128.16C24.8823 124.258 29.1258 121.223 33.746 118.867C36.0008 117.718 38.3209 116.721 40.6922 115.838C41.0731 115.696 41.4565 115.569 41.8409 115.448C44.312 113.873 47.311 112.367 50.3112 112.426C50.515 112.429 50.6801 112.507 50.8034 112.623C50.948 112.648 51.0926 112.679 51.2374 112.721C51.5571 112.814 51.8948 113.164 51.8489 113.524L51.8334 113.644C51.8249 113.702 51.8143 113.759 51.796 113.814C51.9032 113.83 52.0085 113.855 52.1116 113.891C54.982 113.08 57.8061 111.841 60.6072 110.841L61.2451 110.616C63.591 109.794 65.9979 108.989 67.9223 107.362C69.8368 105.744 71.2765 103.649 72.3173 101.383C73.5995 98.5915 74.1737 95.5676 75.2266 92.7019ZM132.695 239.925C133.263 239.502 133.936 239.993 134.148 240.516C134.846 242.233 134.501 244.901 133.517 246.419C132.497 247.991 130.056 247.37 129.997 245.465C129.936 243.479 131.091 241.119 132.695 239.925ZM138.566 192.519C138.617 192.296 138.963 192.298 139.015 192.519C139.489 194.533 139.477 196.703 139.616 198.768L139.632 198.997C139.799 201.275 139.939 203.559 140.039 205.841C140.235 210.33 140.469 214.819 140.732 219.305C140.862 221.529 141.002 223.753 141.151 225.977C141.618 225.717 142.098 225.489 142.596 225.287C143.342 224.986 144.069 224.951 144.871 224.96C145.847 224.97 146.582 225.828 146.453 226.784C146.312 227.826 145.395 228.272 144.442 228.123C143.387 227.958 142.328 227.702 141.263 227.597C141.382 229.316 141.504 231.034 141.634 232.752C141.806 235.026 142.031 237.298 142.189 239.573C142.204 239.79 142.22 240.007 142.237 240.225C142.872 239.895 143.546 239.726 144.311 239.518L144.51 239.462C145.619 239.144 146.806 238.703 147.834 239.449C148.524 239.951 148.662 240.776 148.09 241.438C147.223 242.441 145.94 242.247 144.742 242.195L144.097 242.172C143.49 242.148 142.93 242.109 142.368 241.956C142.471 243.438 142.526 244.926 142.344 246.386C142.245 247.176 141.206 247.383 140.931 246.577C140.212 244.473 140.064 242.203 139.8 239.999C139.555 237.94 139.405 235.867 139.245 233.799L139.196 233.179C138.834 228.629 138.545 224.077 138.333 219.519C138.122 214.961 137.994 210.403 137.944 205.841C137.921 203.769 137.955 201.69 138.036 199.618L138.062 198.997C138.155 196.867 138.09 194.606 138.566 192.519ZM43.5792 240.261C43.6069 239.97 43.8401 239.608 44.187 239.653C44.5067 239.695 44.8362 239.675 45.1524 239.728C45.5698 239.797 45.9057 240.043 46.294 240.198C46.9249 240.451 47.6128 240.581 48.2602 240.787C49.4748 241.175 50.1367 242.453 49.6337 243.647C49.1047 244.901 47.7755 245.186 46.6271 244.66C45.7218 244.245 45.047 243.581 44.4384 242.814L44.2659 242.595C44.0036 242.265 43.7059 241.897 43.5958 241.497C43.4888 241.108 43.5416 240.657 43.5792 240.261ZM102.591 234.362C104.104 234.149 105.396 234.666 106.796 235.153L106.909 235.193C108.334 235.684 110.413 236.025 111.143 237.482C111.584 238.361 111.242 239.529 110.205 239.789C108.563 240.2 107.091 239.001 105.733 238.193L105.662 238.151C104.351 237.384 102.999 236.739 102.162 235.415C101.939 235.062 102.132 234.426 102.591 234.362ZM49.7783 114.09C49.1722 114.226 48.5661 114.346 47.9606 114.461C45.6574 115.696 43.4219 116.976 41.0439 118.075C38.5208 119.242 36.0071 120.447 33.6105 121.858C28.7687 124.709 24.7773 128.417 21.4791 132.961C15.7819 140.81 11.5441 149.862 8.51111 159.047C7.73185 161.406 7.03451 163.793 6.41758 166.199C7.50834 165.19 8.79969 164.57 10.2478 164.04C10.8614 163.815 11.6253 164.195 11.9364 164.726C12.0763 164.965 12.1552 165.201 12.1407 165.481C12.1085 166.098 11.7064 166.8 11.0428 166.922C9.49573 167.207 7.99146 167.762 6.49973 168.251C6.27362 168.325 6.07929 168.297 5.92409 168.209C4.44316 174.48 3.51669 180.879 3.18856 187.318C2.91101 192.768 3.08221 198.262 3.68617 203.705C4.15026 203.496 4.6042 203.3 5.11305 203.182C5.77299 203.029 6.42212 202.842 7.06585 202.631C8.92355 202.022 9.7709 205.088 7.87214 205.555C7.1655 205.729 6.45455 205.873 5.73451 205.979C5.107 206.071 4.55189 206.03 3.96026 205.934C4.41225 209.33 5.02961 212.701 5.81601 216.024L5.98953 216.751C7.01104 220.996 8.2016 225.28 9.92329 229.291C10.7678 231.258 11.886 233.127 13.2667 234.768C13.945 235.574 14.6979 236.266 15.5189 236.921C16.2024 237.467 18.5257 238.65 21.2774 238.65C24.029 238.65 24.774 238.389 26.1622 237.912C28.9077 236.967 31.5144 235.459 34.0892 234.116L34.3554 233.977C35.4939 233.389 36.6281 232.791 37.7593 232.188C37.6164 231.036 37.8665 230.067 38.4674 229.002C39.117 227.851 40.7265 228.424 40.8462 229.602L40.85 229.648C40.8681 229.913 40.9127 230.184 40.968 230.454C48.5317 226.312 55.9352 221.88 63.221 217.262C67.9141 214.287 72.5572 211.223 77.1325 208.07C79.4197 206.494 81.687 204.889 83.9319 203.253C85.1078 202.396 86.2783 201.532 87.4434 200.66C87.9287 200.297 88.4047 199.916 88.891 199.551C88.7728 199.403 88.6576 199.256 88.546 199.11C86.7299 196.733 85.5516 193.899 84.9645 190.976C84.61 189.213 84.4388 187.382 84.3867 185.583L84.3638 184.802C84.3279 183.484 84.3185 182.105 84.5613 180.829C84.2308 181.011 83.8932 181.189 83.5566 181.379C82.3489 182.063 81.1401 182.746 79.9294 183.425C77.5049 184.784 75.0733 186.128 72.6108 187.418C68.2124 189.721 63.7707 191.912 59.209 193.876L56.9894 194.833C53.1371 196.489 49.2534 198.115 45.2482 199.347C42.9891 200.041 40.7129 200.634 38.4214 201.164L39.3481 202.249C39.9765 202.985 39.9875 204.041 39.1845 204.66C38.395 205.269 37.3358 205.016 36.8099 204.207L35.8512 202.733C35.6463 202.418 35.53 202.123 35.4641 201.812C34.4085 202.032 33.3502 202.244 32.289 202.449L30.2829 202.832C27.4182 203.385 24.6408 204.479 22.0803 205.88C21.1901 206.367 20.9421 205.421 21.8852 204.762C24.6429 202.835 27.8597 201.744 31.1786 200.829L31.3417 200.784C32.5593 200.451 33.7748 200.103 34.9877 199.743C34.8543 199.261 34.7773 198.761 34.7927 198.209C34.8269 196.979 34.9356 195.746 35.0009 194.517C35.1379 191.939 35.3128 189.369 35.5177 186.795C35.5964 185.804 35.6846 184.81 35.7855 183.816C35.1351 183.468 34.5742 183.005 33.849 182.777L33.7266 182.742C32.951 182.533 33.2128 181.534 33.9017 181.448C34.5257 181.371 35.1468 181.407 35.762 181.539C35.8573 181.559 35.9474 181.582 36.0335 181.609C36.1465 180.688 36.2719 179.771 36.4143 178.858C36.7911 176.447 37.0576 173.907 37.8419 171.59C37.9 171.419 38.1549 171.357 38.2493 171.537C39.3902 173.707 39.4299 176.368 39.5585 178.784L39.5744 179.073C39.7259 181.709 39.7346 184.37 39.6857 187.01C39.6356 189.73 39.5424 192.443 39.4203 195.161C39.3712 196.255 39.3732 197.39 39.1866 198.437C45.9758 196.23 52.6451 193.59 59.0376 190.463C63.547 188.257 68.0174 185.963 72.4368 183.583C74.6512 182.391 76.8759 181.217 79.0879 180.021C79.8629 179.601 80.6373 179.18 81.4115 178.759L82.5724 178.126C83.6589 177.533 84.5656 176.944 85.831 176.902C86.2083 176.889 86.5466 177.066 86.7867 177.334C87.4668 176.851 88.2527 176.555 89.0776 176.562C90.3192 174.848 91.5799 173.148 92.8907 171.484L93.8591 170.253C95.5352 168.128 97.3107 165.971 99.4479 164.354C100.402 163.632 101.451 163.091 102.545 162.643C102.288 162.581 102.036 162.454 101.811 162.246C100.766 161.277 100.622 159.478 100.41 158.126C100.19 156.724 100.275 155.47 100.492 154.072C100.577 153.529 101.476 153.416 101.696 153.915C102.159 154.967 102.649 155.974 103.07 157.038L103.194 157.359C103.646 158.556 104.609 159.815 104.545 161.114C104.528 161.47 104.409 161.78 104.225 162.029C105.143 161.724 106.075 161.452 106.992 161.169C109.879 160.277 112.778 159.41 115.721 158.718C116.504 158.534 117.291 158.363 118.082 158.207C118.496 156.241 119.099 154.312 119.811 152.417C119.137 152.072 118.701 151.494 118.121 150.979C117.578 150.498 117.205 149.911 116.742 149.358C116.32 148.854 116.557 147.945 117.315 147.975L117.529 147.984C118.314 148.02 119.075 148.101 119.787 148.467L120.04 148.598C120.388 148.779 120.769 148.986 121.108 149.23C121.552 148.21 122.013 147.2 122.479 146.2L123.083 144.908C124.651 141.543 126.214 138.05 128.182 134.917C129.057 133.524 130.222 132.654 131.893 132.519C133.614 132.381 135.404 132.56 137.127 132.621C139.125 132.693 141.122 132.778 143.118 132.882C142.607 132.347 142.14 131.75 141.626 131.236C140.773 130.384 139.872 129.576 138.925 128.829C137.05 127.35 134.989 126.132 132.848 125.084C130.706 124.034 128.502 123.12 126.491 121.824C125.219 121.004 124.082 119.972 123.045 118.855C122.392 125.897 118.99 132.44 113.88 137.355C108.571 142.46 101.236 145.265 94.0605 146.458C86.7413 147.675 79.1024 147.228 72.1007 144.685C68.4906 143.374 65.0281 141.5 61.9402 139.15C61.9063 139.355 61.8654 139.557 61.7852 139.747C61.6776 140.002 61.546 140.219 61.395 140.444L61.1259 140.837C60.956 141.084 60.783 141.33 60.5903 141.559C60.1236 142.115 59.4624 142.358 58.7501 142.355C57.3863 142.351 56.3535 141.014 56.7206 139.692C56.9512 138.861 57.4447 138.361 58.2151 138.036C58.4586 137.933 58.7068 137.847 58.9564 137.762L59.1437 137.699C59.396 137.613 59.6463 137.53 59.9059 137.482C58.4438 136.192 57.0872 134.79 55.8723 133.276C52.0621 128.528 48.3039 121.879 49.5777 115.574C49.5998 115.466 49.6973 115.398 49.8023 115.38C49.8762 114.938 50.1119 114.51 50.4346 114.222C50.2173 114.165 49.9984 114.121 49.7783 114.09ZM89.3443 223.104C90.0989 222.685 90.8784 223.682 90.2651 224.297L89.3495 225.213C88.4998 226.066 87.6727 226.929 86.9453 227.902L86.7692 228.14C85.7874 229.475 84.7404 231.022 83.1316 231.521C81.1857 232.125 79.3157 229.755 80.4425 228.025C81.4269 226.512 83.3225 225.941 84.9566 225.316C86.5026 224.724 87.899 223.907 89.3443 223.104ZM26.5707 216.124C27.0141 215.544 28.1701 215.849 27.8673 216.671C26.8835 219.337 26.4826 222.972 23.998 224.743C23.1965 225.314 21.9373 225.052 21.2774 224.392C20.5275 223.643 20.4975 222.587 20.9263 221.673C21.4494 220.557 22.7358 219.748 23.6376 218.899L23.7185 218.821C24.6886 217.879 25.7379 217.214 26.5707 216.124ZM130.412 219.192C131.203 218.851 133.266 218.188 133.877 218.973C133.906 219.002 133.93 219.033 133.95 219.068C134.1 219.328 134.122 219.696 133.95 219.954C133.237 221.024 132.496 221.823 131.483 222.584L131.369 222.669C130.267 223.479 129.231 224.43 127.888 224.796C126.026 225.302 124.726 222.972 126.033 221.611C127.087 220.515 128.695 219.946 130.091 219.335L130.412 219.192ZM55.6452 203.959C55.3337 203.396 55.9701 202.706 56.5464 203.058C58.1903 204.062 60.1052 204.816 61.9517 205.357C62.699 205.576 63.3732 206.333 63.3176 207.15L63.3089 207.274C63.2869 207.563 63.2471 207.849 63.0636 208.089C62.4206 208.93 61.5006 209.254 60.5181 208.756C58.3286 207.647 56.83 206.099 55.6452 203.959ZM103.693 202.255C103.653 202.018 103.826 201.835 104.067 201.881C105.456 202.144 106.739 202.815 107.932 203.586C108.572 204 109.189 204.454 109.827 204.871C110.616 205.387 110.911 205.813 111.028 206.759C111.105 207.384 110.521 207.954 109.986 208.127C108.528 208.597 106.858 207.054 105.87 206.052L105.825 206.007C104.791 204.954 103.938 203.708 103.693 202.255ZM145.419 200.618C145.102 199.763 146.194 199.054 146.907 199.474C147.579 199.869 148.309 200.197 148.943 200.65C149.525 201.066 150.056 201.56 150.615 202.011L150.891 202.23C151.916 203.053 153.607 205.089 152.142 206.271C150.748 207.395 148.899 205.959 147.963 204.909L147.898 204.835C147.359 204.213 146.696 203.538 146.305 202.811C145.937 202.128 145.688 201.343 145.419 200.618ZM131.669 134.442C129.922 134.781 129.211 136.936 128.475 138.341C126.74 141.655 125.144 145.031 123.54 148.411C123.047 149.45 122.566 150.498 122.082 151.543C122.052 151.625 122.014 151.706 121.969 151.786C120.976 153.923 119.953 156.047 118.757 158.076C119.852 157.871 120.951 157.697 122.055 157.559C122 156.52 122.711 155.13 123.064 154.255L123.093 154.181C123.532 153.06 123.992 151.294 125.122 150.713C125.499 150.519 125.901 150.762 125.93 151.176C126.016 152.41 124.809 153.822 124.219 154.869C123.862 155.503 123.514 156.139 123.175 156.783C123.048 157.023 122.942 157.26 122.811 157.472C123.381 157.41 123.951 157.356 124.522 157.316L124.895 157.29C127.014 157.151 129.264 157.111 131.178 158.155C132.955 159.124 133.862 161.192 132.887 163.075C131.671 165.421 128.994 165.732 126.64 165.922C123.7 166.159 120.753 166.587 117.833 167.005C114.814 167.437 111.97 168.549 108.995 169.121C108.718 169.175 108.546 168.813 108.8 168.658C111.147 167.231 113.999 166.445 116.623 165.645L116.835 165.58C118.258 165.143 119.649 164.644 121.121 164.396C122.55 164.155 123.988 163.96 125.429 163.812L125.569 163.799C127.156 163.666 131.205 163.712 131.033 161.363C130.92 159.808 128.392 159.54 127.239 159.521C121.948 159.437 116.62 160.84 111.592 162.344L110.47 162.681C108.411 163.3 106.349 163.937 104.329 164.663C102.04 165.485 100.237 166.768 98.5695 168.523C96.7208 170.469 94.9304 172.459 93.0126 174.34C91.8036 175.526 90.579 176.69 89.3445 177.845C89.0657 178.206 88.8426 178.599 88.6881 179.108C88.4269 179.968 88.487 180.768 88.5856 181.652C88.8342 183.884 88.8891 186.139 89.2006 188.364C89.4894 190.425 89.8932 192.562 90.7494 194.474C91.0884 195.231 91.5297 195.975 92.0322 196.64L92.4377 197.167C92.6146 197.396 92.8123 197.647 93.0199 197.882C93.3247 197.511 93.7657 197.269 94.2782 197.329C95.3675 197.458 96.2237 197.427 97.2922 197.177C98.1192 196.983 98.9397 196.757 99.7631 196.547C101.38 196.134 103.012 195.759 104.612 195.286L104.887 195.203C106.079 194.837 107.272 194.379 108.265 193.61C109.418 192.715 109.773 191.425 110.627 190.309C112.451 187.927 116.393 187.977 119.061 187.324C121.329 186.77 123.512 185.895 125.082 184.25L125.173 184.152C125.104 183.859 125.216 183.527 125.489 183.375L125.549 183.342C125.655 183.283 125.77 183.258 125.882 183.261C126.028 183.047 126.168 182.826 126.296 182.591C126.401 182.397 126.664 182.539 126.629 182.731C126.609 182.845 126.58 182.957 126.553 183.068C128.073 182.678 129.743 182.752 131.287 182.753L133.29 182.746C133.637 182.742 134.153 182.725 134.199 182.704L134.246 182.683C134.371 182.629 134.194 182.718 134.281 182.602C134.378 182.475 134.472 182.345 134.565 182.215C134.897 181.751 135.211 181.272 135.519 180.79C132.164 181.644 128.689 182.175 125.264 182.619C121.589 183.095 117.866 183.425 114.158 183.428C113.136 183.429 113.145 181.887 114.158 181.848C118.084 181.698 121.99 181.491 125.889 180.988C127.906 180.727 129.914 180.401 131.911 180.019C132.682 179.872 133.451 179.715 134.218 179.55L134.793 179.425C135.154 179.345 136.173 179.23 136.67 178.897C136.768 178.729 136.866 178.561 136.963 178.394C136.915 177.805 135.417 177.884 135.066 177.883C134.071 177.881 133.075 177.889 132.08 177.891C130.089 177.897 128.098 177.88 126.107 177.864C122.128 177.832 118.135 177.693 114.16 177.863C113.195 177.904 112.688 176.357 113.642 175.95C117.852 174.153 122.526 173.763 127.022 173.21C129.386 172.92 131.751 172.584 134.063 171.997L134.634 171.851C136.086 171.479 137.689 171.026 138.912 170.139C137.074 169.396 134.79 169.481 132.885 169.376L132.739 169.367C130.072 169.204 127.4 169.12 124.728 169.116C119.26 169.108 113.791 169.302 108.33 169.561C108.193 169.567 108.164 169.351 108.297 169.322C113.911 168.098 119.616 167.508 125.361 167.417C128.036 167.375 130.713 167.413 133.386 167.531L134.367 167.576C136.646 167.674 139.175 167.701 141.082 169.077C141.373 169.286 141.526 169.554 141.55 169.837C144.107 164.741 146.469 159.539 148.841 154.371C150.685 150.353 152.459 146.301 154.37 142.314L154.989 141.024C155.817 139.303 156.666 137.581 157.608 135.923C154.085 135.452 150.541 135.125 146.996 134.875C143.765 134.646 133.224 134.141 131.669 134.442ZM130.108 189.673C130.51 189.449 131.126 189.631 131.225 190.127C131.299 190.495 131.424 190.905 131.424 191.282C131.424 191.734 131.263 192.225 131.177 192.668C130.978 193.684 130.734 194.511 130.217 195.417C129.893 195.983 129.24 196.368 128.583 196.353C128.063 196.341 127.602 196.202 127.245 195.799C126.818 195.317 126.524 194.608 126.759 193.959C127.373 192.259 128.502 190.564 130.108 189.673ZM44.8766 187.976C45.8169 186.33 48.0457 184.858 49.9907 185.004C52.9113 185.223 53.5073 189.154 50.6796 190.092C48.9895 190.652 46.6642 190.077 45.1857 189.154C44.7871 188.905 44.641 188.389 44.8766 187.976ZM14.8606 182.352C14.647 182.041 15 181.687 15.3182 181.756C16.0239 181.911 16.7848 181.979 17.4761 182.189C18.184 182.405 18.8693 182.762 19.5705 183.007C21.0395 183.522 22.6087 183.78 24.0303 184.401C24.5986 184.649 25.0457 185.472 24.9931 186.078L24.9797 186.22C24.9483 186.521 24.8961 186.784 24.7277 187.059C24.2753 187.798 23.3788 188.179 22.5328 187.952C20.9632 187.53 19.4296 186.448 18.0913 185.548L17.844 185.384C17.2593 184.999 16.6306 184.596 16.1595 184.101C15.6677 183.583 15.2635 182.938 14.8606 182.352ZM68.814 176.364C68.6333 175.714 69.4428 175.284 69.9147 175.723C70.8576 176.601 71.8435 177.416 72.7669 178.316L72.8289 178.377C73.4902 179.042 74.4523 180.322 73.5922 181.181C72.4902 182.283 70.9557 180.648 70.3645 179.797C69.6146 178.716 69.1648 177.627 68.814 176.364ZM140.97 170.986C139.571 172.467 137.416 173.148 135.518 173.712C133.269 174.381 130.95 174.78 128.63 175.109C126.388 175.426 124.163 175.709 121.956 176.074C123.625 176.094 125.294 176.107 126.96 176.136C128.88 176.171 130.8 176.213 132.72 176.268C134.118 176.309 135.759 176.117 137.088 176.637C137.327 176.73 137.551 176.86 137.746 177.018C138.863 175.032 139.934 173.019 140.97 170.986ZM54.6909 157.137C56.1508 156.673 57.5237 156.058 59.0714 156.218C59.4827 156.26 59.7774 156.66 59.5528 157.055C58.8193 158.346 57.6266 159.074 56.4526 159.937L56.349 160.014C55.0639 160.969 53.6842 161.84 52.2867 162.624C49.8806 163.974 47.7244 160.111 50.1543 158.977C51.6164 158.295 53.1522 157.625 54.6909 157.137ZM80.976 153.783C83.2096 153.93 85.4419 154.03 87.6783 154.12C90.2688 154.225 89.3979 158.209 87.2339 157.403C85.0961 156.606 82.958 155.819 80.8009 155.076C80.1443 154.85 80.1972 153.772 80.9344 153.781L80.976 153.783ZM23.6875 146.694C24.2664 146.653 24.8502 146.779 25.43 146.836L26.0468 146.895C27.3185 147.022 28.5108 147.178 29.7236 147.695C31.9613 148.65 30.7594 152.246 28.5131 152.163C26.8527 152.102 25.433 151.389 24.031 150.56C22.8053 149.834 22.0539 148.927 21.2263 147.788C20.9522 147.41 21.3341 146.987 21.7074 146.949C22.365 146.882 23.0297 146.74 23.6875 146.694ZM135.858 139.35C135.487 141.66 134.568 143.825 133.183 145.709C132.487 146.656 131.265 146.692 130.575 145.709C129.6 144.319 130.201 142.726 130.936 141.39L131.154 140.999C131.483 140.413 131.989 139.557 132.566 138.967L132.576 138.906C132.886 136.488 136.239 136.971 135.858 139.35ZM45.5161 124.527C46.073 124.026 47.0984 124.177 47.2791 124.992C47.5321 126.135 47.686 127.423 47.5204 128.582C47.4307 129.211 47.397 129.917 47.1497 130.503C46.8838 131.133 46.3723 131.617 45.8905 132.091C44.9286 133.036 42.9008 132.724 42.6431 131.234L42.6104 131.051C42.4808 130.346 42.315 129.593 42.5069 128.894C42.6518 128.367 42.9755 127.829 43.2434 127.34L43.2998 127.236C43.8363 126.237 44.6727 125.286 45.5161 124.527ZM123.786 126.958L123.988 126.96C125.542 126.991 128.384 127.369 128.399 129.289C128.402 129.742 128.067 130.211 127.618 130.315C126.689 130.53 126.088 129.981 125.426 129.427C124.884 128.973 124.253 128.612 123.598 128.351C122.89 128.069 122.936 126.957 123.786 126.958Z" fill="black"/>
<path fill-rule="evenodd" clip-rule="evenodd" d="M126.471 52.1449C125.668 45.7443 123.148 38.9485 120.497 32.9814C114.536 20.365 100.891 18.628 88.658 16.0268C76.5867 14.27 63.8039 12.6837 51.9146 16.1888C45.2307 17.8257 42.6201 25.7832 43.675 32.0629C44.277 35.976 46.0588 39.6794 47.5782 43.306C50.5982 50.7536 52.5143 58.7269 52.5175 66.7903C52.3102 72.0598 51.5662 78.0743 57.6239 80.3062C63.3883 83.1717 63.8753 90.9395 71.0931 95.3468C74.0117 101.257 81.962 101.777 87.684 103.147C91.3006 103.839 94.958 104.349 98.6254 104.678C109.245 106.038 117.74 102.962 123.299 93.5056C127.018 87.7506 129.789 81.1055 129.104 74.1307C128.423 66.786 127.287 59.4797 126.471 52.1449Z" fill="white"/>
<path fill-rule="evenodd" clip-rule="evenodd" d="M88.7494 0.691542C89.3555 0.00482425 90.2893 0.240357 90.8561 0.783378C91.2251 0.892069 91.5826 1.0537 91.9202 1.26763C92.6833 1.16974 93.4833 1.16974 94.2317 1.19718C94.4132 1.09541 94.6078 1.00487 94.8196 0.927075C96.3328 0.374113 97.6727 0.655024 98.778 1.39533C99.3104 0.891853 99.982 0.575937 100.841 0.623692C101.607 0.666477 102.153 1.02691 102.621 1.50165C103.088 0.828972 103.842 0.349047 104.782 0.282277C106.095 0.188928 107.358 0.715528 108.405 1.53082C109.015 0.831565 109.846 0.429647 110.773 0.425758C111.382 0.315122 112.025 0.358771 112.607 0.534232C113.451 0.788997 114.192 1.26633 114.782 1.88584C115.715 0.992116 116.858 0.349048 118.176 0.442829C119.881 0.565997 121.295 1.81951 121.952 3.36235C123.107 3.82456 124.172 4.48383 125.063 5.4238C125.11 5.47329 125.156 5.52515 125.203 5.57722C125.683 5.7542 126.135 6.00507 126.533 6.33547C127.793 7.3837 128.074 8.90061 127.657 10.3871C127.715 10.625 127.765 10.867 127.81 11.1088C128.99 11.2881 130.063 11.969 130.672 13.0775C131.507 14.5988 131.342 16.6038 130.439 18.0561C130.05 18.6808 129.557 19.2072 129.003 19.6675C129.63 21.0893 129.329 22.786 128.319 23.936C128.074 24.3325 127.772 24.6904 127.432 25.0143C127.807 26.4843 127.14 28.001 125.808 28.7865L125.694 29.0714C125.675 29.1188 125.656 29.1659 125.636 29.2126C125.621 29.2731 125.603 29.3317 125.585 29.3907C125.553 29.9123 125.381 30.4242 125.04 30.9065C124.342 31.8949 123.476 32.5395 123.017 33.6934L122.971 33.8146C122.774 34.3606 122.137 34.7459 121.594 34.5773C124.608 40.7662 126.189 47.6527 127.274 54.4014C127.815 57.7683 128.233 61.1468 128.571 64.5382L128.904 67.9155C129.196 70.9175 129.456 73.9294 129.457 76.9412C129.462 83.7546 127.512 90.3083 123.327 95.7301C119.369 100.855 113.768 104.57 107.441 106.033C100.909 107.541 93.246 106.947 87.388 103.494C85.6609 102.478 87.174 100.036 88.9314 100.853C92.2581 102.401 95.6389 103.55 99.3266 103.807C102.921 104.06 106.525 103.61 109.934 102.435C115.573 100.488 120.372 96.4107 123.457 91.3327C124.976 88.8302 126.077 86.1143 126.662 83.2444C127.392 79.6676 127.282 75.9706 127.014 72.348L126.995 72.1012C126.466 65.1214 125.767 58.0986 124.639 51.1885C123.642 45.0778 122.108 39.0909 120.117 33.2365C119.337 32.5503 118.465 31.9824 117.531 31.5511C110.695 31.2656 103.846 31.349 97.018 31.8205C91.195 32.2253 85.4003 32.91 79.6493 33.908L79.0333 34.0162C77.7601 34.2428 76.3465 34.3725 75.1468 34.8848C74.1178 35.3256 73.7006 36.1727 73.4412 37.214C72.7884 39.8481 72.689 42.7309 72.5788 45.4319C72.4707 48.0723 72.7149 50.7347 72.5031 53.3664C72.3237 55.5683 71.7595 57.822 70.1275 59.4148C69.2736 60.2487 68.2231 60.7046 67.2374 61.3377C66.5997 61.7464 66.3295 62.1675 66.4117 62.9238C66.5889 64.579 67.9226 66.6642 66.4246 68.0818C66.1609 68.3303 65.7048 68.3627 65.4454 68.0818C64.8272 67.41 63.9734 66.8976 63.2406 66.3552C62.9336 66.1307 63.1887 65.6942 63.5367 65.8496C63.995 66.0551 64.4619 66.2971 64.9396 66.5089C63.8847 65.6402 62.3846 65.2143 61.1352 64.9615C60.5061 64.8362 59.8447 64.7994 59.1897 64.858C58.7055 65.089 58.2105 65.3031 57.7155 65.5125C57.0864 65.7764 56.4509 66.016 55.8111 66.2431C53.5911 68.0515 52.5319 70.9926 52.9945 73.8687C53.2474 75.4567 53.9802 77.1835 55.3615 78.1105C56.9978 79.2082 59.1897 78.7369 60.9579 79.5518C62.6137 80.3143 63.621 81.8552 64.3754 83.4499L64.6899 84.1139C65.3901 85.5839 66.1099 87.0148 67.0666 88.3527C68.1734 89.902 69.5287 91.2936 71.0073 92.4888C71.7246 93.0672 72.4891 93.5875 73.2792 94.0613L73.4953 94.1894C74.2951 94.6583 74.8679 95.1054 74.9219 96.0972C74.9392 96.4429 74.7209 96.7584 74.4399 96.9378C73.2294 97.7049 72.0254 96.7454 71.0181 96.0756C69.9308 95.3539 68.891 94.5416 67.9291 93.6556C66.1004 91.9745 64.5181 89.9779 63.3011 87.8103C62.3738 86.1596 61.8463 83.8367 60.3808 82.5575C59.4858 81.7772 58.2213 81.771 57.1037 81.6281C56.064 81.4944 55.0805 81.2783 54.1553 80.7662C50.3919 78.6766 49.3284 73.6181 50.2212 69.7091C50.3725 69.0498 50.5843 68.4081 50.8459 67.79C49.4451 68.0234 47.8715 66.5759 48.44 65.1149C48.4832 65.0047 48.5329 64.9012 48.5805 64.7951C47.6575 64.1879 46.929 63.2676 46.5831 62.0638C46.4059 61.4415 46.38 60.8127 46.4729 60.2055C46.0255 59.9053 45.6558 59.4924 45.418 58.9846C44.6744 58.641 44.0151 58.1269 43.6217 57.3923C43.077 56.3786 43.1462 55.4451 43.5612 54.6045C43.5028 54.4989 43.4466 54.3908 43.3926 54.2804C41.8687 53.3147 40.8051 51.6507 40.9262 49.8053C40.9651 49.1938 41.1164 48.6428 41.3499 48.146C41.3304 48.0833 41.311 48.0183 41.2937 47.9556C40.0183 47.3074 38.9635 46.2423 38.5873 44.8204C38.2112 43.3897 38.6543 41.9636 39.5406 40.8659C38.2436 39.9175 37.4633 38.5929 37.9367 36.5895C38.1291 35.7751 38.516 35.0337 39.0391 34.4092C39.0369 34.39 39.0326 34.3706 39.0283 34.3509L38.907 34.2568C37.3058 32.9938 36.3854 31.3843 37.3682 29.4047C37.8091 28.5147 38.4382 27.8943 39.1775 27.4859L39.2142 27.3692C38.6846 26.2347 38.5052 24.975 38.8705 23.6504C39.1688 22.5593 39.8757 21.6905 40.7792 21.1137C40.7187 20.6252 40.7273 20.1046 40.8246 19.5404C40.9867 18.5877 41.4601 17.7558 42.1518 17.1659C42.1778 17.0403 42.2102 16.9174 42.2469 16.794C42.4804 16.0401 42.917 15.2211 43.4229 14.6137C43.8401 14.1102 44.307 13.9265 44.8776 13.9071C44.843 13.4427 44.8668 12.9714 44.9619 12.4939C45.2538 11.0204 46.1919 9.63509 47.5818 9.00628C48.1525 8.74914 48.7534 8.67372 49.3327 8.73617C49.8256 7.69896 50.7875 6.9472 51.9699 6.78514C52.4303 6.72031 52.8583 6.72442 53.2517 6.78298C53.4744 6.67904 53.7057 6.58634 53.9478 6.50185C54.1077 6.44567 54.2699 6.39381 54.432 6.34217C54.9789 5.66366 55.6987 5.12107 56.5396 4.795C57.5101 4.41685 58.498 4.45553 59.3734 4.77317L59.6523 4.71483C60.0889 3.95853 60.785 3.37294 61.855 3.10716C63.0698 2.8068 64.3171 3.226 65.2725 3.989C65.2768 3.989 65.2811 3.989 65.2876 3.98662C65.787 2.86946 66.6408 2.09156 68.0739 2.14558C68.9667 2.18015 69.773 2.62334 70.3955 3.25431C70.7414 3.21088 71.0872 3.17198 71.4353 3.1333C71.8027 2.70308 72.2113 2.30138 72.6631 1.94051C73.4023 1.34822 74.3642 1.39598 74.909 2.22985C75.0279 2.41136 75.1381 2.59504 75.2484 2.77871L75.7477 2.74413C76.3356 1.9511 77.1376 1.41521 78.2357 1.37221C79.243 1.33094 79.9607 1.82383 80.5076 2.51292C80.9529 2.50212 81.4003 2.49369 81.8478 2.48699C82.3687 1.88412 82.9826 1.35255 83.683 0.911733C84.2191 0.57464 85.0102 0.689382 85.4447 1.13884C85.7382 1.44438 86.0115 1.76332 86.2655 2.0935C86.9202 1.35968 87.8045 0.876295 88.7494 0.691542ZM56.9351 69.3093C57.9446 68.7345 59.3021 69.3568 60.2792 69.8451C61.4702 70.4394 62.6526 71.3361 63.3811 72.4598C64.3733 73.9897 62.0409 75.2257 60.9968 73.8535C60.3548 73.0086 59.8425 72.1572 59.0643 71.4182C58.3532 70.7397 57.3221 70.286 56.9135 69.3914C56.8984 69.3611 56.9027 69.3265 56.9351 69.3093ZM57.6443 32.1749L57.6632 32.1209C57.9502 31.3359 56.6974 30.9975 56.4127 31.776C55.9812 32.9561 56.4786 34.239 57.6446 34.7485C57.9677 34.8898 58.3369 34.8408 58.5317 34.516C58.6953 34.2426 58.6195 33.769 58.2991 33.6292C57.6431 33.3424 57.4233 32.8362 57.6443 32.1749ZM46.851 29.9797C47.4781 29.4265 46.5579 28.5123 45.9338 29.0631C45.3515 29.5769 44.9196 30.2749 45.0318 31.0776C45.1461 31.8957 45.7632 32.4733 46.4388 32.8815C47.1547 33.3143 47.8073 32.1937 47.0933 31.762L47.0131 31.7129C46.7134 31.5269 46.3626 31.271 46.3119 30.905C46.258 30.516 46.5873 30.2124 46.851 29.9797ZM50.4106 20.2187L50.455 20.1861C51.1286 19.7055 50.4816 18.5806 49.8003 19.0665C49.1756 19.5123 48.6745 20.0914 48.6218 20.8901C48.5705 21.6663 48.9657 22.3392 49.4823 22.8852C50.0571 23.4926 50.9732 22.5747 50.3995 21.9686C49.8405 21.3778 49.7312 20.7332 50.4106 20.2187Z" fill="black"/>
<path fill-rule="evenodd" clip-rule="evenodd" d="M111.915 83.8516C112.065 83.811 112.197 84.0124 112.072 84.1226C111.564 84.574 111.24 85.415 110.869 85.9883C110.516 86.5337 110.175 87.0735 109.865 87.6443C109.517 88.2842 109.18 88.9216 108.909 89.5986L108.855 89.7352C108.937 89.9283 109 90.1189 109.047 90.2438L109.06 90.2793C109.523 91.4613 108.552 92.7749 107.455 93.1052C105.58 93.6703 103.972 92.1311 103.927 90.3007C103.892 88.8607 104.868 87.5776 105.86 86.6257C106.728 85.7932 107.7 85.0844 108.787 84.5651C109.267 84.3363 109.765 84.1449 110.286 84.0338C110.818 83.9203 111.393 83.9925 111.915 83.8516ZM108.381 89.0701C108.518 89.1349 108.636 89.2933 108.734 89.4783C108.685 89.3214 108.583 89.1654 108.381 89.0701ZM109.554 69.0621C111.186 70.0539 113.673 72.3667 111.917 74.8256C109.85 76.9937 106.874 74.5078 105.408 73.3835C104.048 72.5122 102.52 74.7532 103.782 75.7706C114.379 83.6134 118.679 69.3214 110.38 67.8959C109.466 67.7388 109.126 68.7552 109.554 69.0621ZM96.1361 59.5382L96.4245 59.514C97.6755 59.4038 98.9421 59.2358 100.176 59.5187C101.833 59.899 101.712 62.3092 100.176 62.7524C98.8221 63.1429 97.3222 62.9739 95.9249 62.9873C95.7051 62.9895 95.4857 62.9951 95.266 62.9988C95.2228 63.521 95.0514 63.9714 94.789 64.4212C94.6009 64.7441 94.361 65.0507 94.1249 65.3374C93.5638 66.019 92.2402 66.0036 91.6739 65.3374C91.2549 64.8443 90.9214 64.2771 90.916 63.6096C90.9147 63.4387 90.9355 63.2572 90.9763 63.0787L90.2137 63.092C88.3471 63.1205 86.4663 63.1079 84.6335 62.8114C83.9815 62.9462 83.448 61.7703 84.3479 61.4183C86.7942 60.4619 89.5272 60.1804 92.1231 59.8932C93.457 59.7454 94.7983 59.6436 96.1361 59.5382ZM116.977 58.5498L117.043 58.5432C118.662 58.3775 120.446 58.0905 122.068 58.2556C124.49 58.5017 124.486 61.7745 122.068 62.0194C121.181 62.1093 120.246 62.0656 119.313 61.9796C119.79 62.9905 119.224 64.1977 118.076 64.352C117.009 64.4953 115.903 63.4586 116.253 62.3466L116.269 62.2975C116.337 62.1045 116.399 61.8889 116.472 61.676L116.085 61.6434C114.931 61.5414 113.329 61.3331 112.904 60.4219C112.775 60.1472 112.805 59.8922 113.002 59.6576C113.812 58.6946 115.807 58.6629 116.977 58.5498ZM99.7624 51.0564C100.934 50.631 102.152 51.6267 102.304 52.7488C102.479 54.0419 101.546 54.8933 100.363 55.0477L100.304 55.0549C97.6933 55.3423 95.1026 55.8678 92.4888 56.1649C91.3016 56.2997 90.1056 56.3883 88.9105 56.4202L88.0564 56.4394C87.0099 56.4659 85.8874 56.4897 84.9211 56.1295L84.9248 56.123C84.6682 56.0486 84.5502 55.6787 84.8358 55.4764C85.8645 54.7493 87.2512 54.4745 88.4487 54.1289C89.6527 53.7813 90.8656 53.4608 92.0817 53.1598C94.6355 52.5284 97.2882 51.9549 99.7624 51.0564ZM110.568 51.3587C110.878 49.7227 113.196 49.5473 114.048 50.7377C114.598 50.9265 115.405 51.1236 115.905 51.2718C116.776 51.5301 117.648 51.7868 118.522 52.0355C120.331 52.5506 122.097 53.2036 123.875 53.8124C124.059 53.8752 124.008 54.1077 123.832 54.1309C121.349 54.4539 118.908 54.6042 116.411 54.5006L115.898 54.4775C113.697 54.3918 109.961 54.5554 110.568 51.3587Z" fill="black"/>
<path fill-rule="evenodd" clip-rule="evenodd" d="M114.132 93.2512C112.119 91.4583 109.862 87.854 106.97 90.7059C106.255 91.5117 105.965 93.3182 104.872 93.6726C103.419 94.1436 101.979 92.6073 101.484 91.4274C99.459 84.8721 107.832 83.074 112.602 84.133C114.932 85.0896 116.648 88.9403 116.752 90.9499C116.819 92.3004 115.675 94.2862 114.132 93.2512ZM129.32 83.147C129.3 83.06 129.272 82.9813 129.239 82.9098C128.349 82.5733 127.644 82.9165 127.209 83.5574C127.223 83.7166 127.271 83.8781 127.301 84.036C126.965 84.7435 126.662 85.6188 126.207 86.2301C126.117 86.2371 126.024 86.2276 125.934 86.2016C118.387 86.9895 122.072 79.0961 114.417 77.1356C108.5 76.1597 97.806 77.2775 95.0147 83.434C92.8133 93.2676 81.6198 86.4155 77.9446 81.3015C74.0232 76.6472 71.4876 70.9598 69.0428 65.441C68.5262 64.2731 66.9139 65.1083 67.0892 66.2289C64.8294 70.7604 64.9047 76.2036 64.345 81.1679C63.393 91.0722 62.4655 104.962 71.6712 111.009C83.6653 124.561 113.616 129.344 127.45 116.892C132.239 106.6 131.649 94.0436 129.32 83.147Z" fill="black"/>
</svg>
