<svg width="157" height="237" viewBox="0 0 157 237" fill="none" xmlns="http://www.w3.org/2000/svg">
<path fill-rule="evenodd" clip-rule="evenodd" d="M137.994 247.494C135.662 247.638 133.331 247.752 131 247.839C100.518 248.977 70.0602 245.497 39.5965 244.735C28.9878 244.456 18.4334 244.595 7.8519 245.448C6.81511 245.532 5.62955 244.415 5.7569 243.35C7.71188 226.452 10.1576 209.599 11.4251 192.631C11.4261 191.733 11.3104 190.837 11.0024 189.992C10.9443 189.925 10.6433 189.182 10.3755 189.136C10.4629 189.201 10.0667 189.087 10.319 189.106C8.78917 188.856 7.28871 187.202 8.39891 185.619C19.8363 168.065 35.4492 152.043 40.4723 131.193C41.659 125.556 45.9456 125.208 50.5122 122.882C51.9369 122.034 55.421 119.683 55.988 118.049C57.3424 112.159 54.9573 106.389 61.9256 104.006C66.5257 102.729 74.6564 101.648 79.3108 102.995C84.9884 104.887 84.5635 111.294 87.8567 115.702C89.5599 118.252 92.4635 121.742 95.1447 122.133C96.4441 122.322 97.4013 119.69 98.6987 119.871C118.923 124.79 146.477 158.344 155.17 176.919C157.129 182.765 150.811 181.001 151.199 186.877C151.678 198.024 152.724 212.294 152.104 223.454C151.522 229.931 151.952 236.718 149.942 242.952C150.483 243.61 149.705 244.275 149.071 244.561C148.271 245.922 140.406 247.305 137.994 247.494Z" fill="white"/>
<path fill-rule="evenodd" clip-rule="evenodd" d="M85.3408 108.676C84.815 106.307 81.0507 107.323 81.6953 109.682C82.6943 113.331 84.7663 116.779 87.691 119.199C89.9502 121.067 93.0288 122.734 96.0825 123.042C95.7962 123.321 95.5217 123.62 95.2334 123.904C94.583 124.552 93.8917 125.152 93.179 125.729C91.7143 126.915 90.1917 127.982 88.5286 128.875C81.8861 132.444 74.3826 133.267 66.9633 132.436C63.4425 132.042 59.869 131.373 56.5585 130.084C55.0237 129.487 53.5322 128.703 52.2156 127.713L51.8711 127.454C51.1789 126.93 50.2552 126.192 49.8225 125.384C51.1389 125.681 52.8039 124.277 53.7172 123.46C54.716 122.563 55.5575 121.406 56.1787 120.22C57.3958 117.894 58.0404 114.893 57.0198 112.399C56.9518 112.233 56.7337 112.26 56.7143 112.44C56.4124 115.347 55.6296 118.073 53.5457 120.226C52.6207 121.18 51.5128 121.98 50.3035 122.535L50.1333 122.613C49.6181 122.852 49.0757 123.132 48.8585 123.643C48.7746 123.633 48.6911 123.641 48.6112 123.662C48.5392 123.682 48.4729 123.703 48.4087 123.727C48.5528 123.444 48.6285 123.111 48.6151 122.716C48.5643 121.19 46.4708 121.143 46.1809 122.502C46.2335 122.323 46.3036 122.496 46.1711 122.551C46.1732 122.535 46.1769 122.518 46.181 122.502L46.177 122.516L46.1691 122.551L46.1711 122.551C46.1658 122.575 46.1615 122.601 46.1587 122.627L46.156 122.661L46.1577 122.632C46.1595 122.611 46.162 122.593 46.1648 122.575L46.1692 122.551C46.1497 122.56 46.1225 122.567 46.0913 122.567L46.0784 122.572C46.0296 122.593 45.8576 122.673 45.8068 122.693C45.4584 122.822 45.0689 122.863 44.7126 122.974C43.9392 123.212 43.2577 123.606 42.7864 124.277C42.4476 124.758 42.2589 125.31 42.181 125.883C38.7594 127.531 35.5209 129.672 32.808 132.323C26.7536 138.235 22.5319 145.636 19.0675 153.296C17.3042 157.196 15.7329 161.178 14.1961 165.171L13.9537 165.802C12.3062 170.094 10.8494 174.433 10.4912 179.047C10.4581 179.46 10.5945 179.849 10.8301 180.17C10.7463 180.517 10.7033 180.865 10.7152 181.204C10.7171 181.257 10.7208 181.309 10.7249 181.362C10.1719 181.352 9.63051 181.584 9.11639 182.235C8.90802 182.169 8.68213 182.161 8.46013 182.233C7.10669 182.666 6.8886 184.154 6.63348 185.4C6.37039 186.688 6.25569 188.006 6.25374 189.318C6.25374 189.788 6.52248 190.381 6.97815 190.582C7.83501 190.96 8.75787 191.208 9.64412 191.551C10.3101 191.808 10.9781 192.052 11.6519 192.28C11.278 192.933 11.1572 193.842 10.9547 194.531C10.6373 195.605 10.3822 196.684 10.1678 197.784C8.71523 205.262 7.70844 212.821 6.34915 220.315C5.66953 224.069 4.87869 227.797 4.07268 231.526C3.67542 233.359 3.25282 235.188 2.79909 237.009C2.55742 237.981 2.3064 238.952 2.04739 239.917C1.97209 240.199 1.89594 240.48 1.81891 240.761L1.68324 241.253C1.38724 241.417 1.13408 241.665 0.958817 242.004C0.317932 243.244 0.686172 244.642 1.91498 245.34C3.25087 246.101 4.84558 245.383 5.58189 244.149C6.09988 243.277 6.26932 242.123 6.52441 241.153C6.81264 240.065 7.08722 238.971 7.35207 237.877C9.15125 230.445 10.3561 222.883 11.2643 215.292L11.3286 214.749C11.7901 210.841 12.2361 206.924 12.5243 202.998C12.6665 201.069 12.7794 199.141 12.8495 197.208C12.8846 196.214 12.8281 195.213 12.7716 194.221C12.7463 193.786 12.7093 193.349 12.6957 192.914L12.6913 192.852C12.6877 192.808 12.6826 192.75 12.6785 192.689L12.6742 192.616C14.0179 193.037 15.3811 193.388 16.7577 193.684C19.6868 194.318 22.6838 194.671 25.673 194.492C25.2563 199.449 24.713 204.394 23.9535 209.306C23.2213 214.038 22.3761 218.759 21.4219 223.451C20.9446 225.808 20.4287 228.16 19.8854 230.504C19.5933 231.756 19.2603 233 18.9972 234.258C18.8416 235.007 18.7929 235.633 19.1065 236.333C18.7612 237.274 18.4546 238.221 18.153 239.111L18.0627 239.377C17.5291 240.937 16.5164 242.532 17.5739 244.065C18.1209 244.857 19.0128 245.309 19.9107 245.337C19.9263 245.346 19.9438 245.358 19.9613 245.368C20.4443 245.627 21.0013 245.678 21.5309 245.567C22.3352 245.724 23.1414 245.877 23.9496 246.015C25.9456 246.36 27.9514 246.645 29.9611 246.885C33.7878 247.341 37.6397 247.591 41.4894 247.729C55.5848 248.238 69.6955 247.345 83.7963 247.602C90.9804 247.733 98.1643 248.057 105.336 248.486C108.916 248.7 112.497 248.931 116.078 249.108L117.187 249.162C120.389 249.315 123.594 249.434 126.795 249.2C126.857 249.196 126.906 249.17 126.939 249.135C128.043 249.011 129.153 247.992 129.042 246.817C128.565 241.809 128.088 236.801 127.609 231.791C126.758 222.866 125.899 213.94 125.03 205.016L124.905 203.728C124.613 200.721 124.334 197.707 124.193 194.689C124.906 194.638 125.616 194.574 126.327 194.495C134.03 193.651 141.415 191.318 148.505 188.253L148.792 188.129C149.431 187.85 150.13 187.571 150.847 187.273C150.835 188.635 150.88 190.001 150.886 191.35C150.895 193.591 150.878 195.831 150.872 198.07C150.858 202.684 150.683 207.3 150.453 211.906C150.05 220.042 149.577 228.166 148.86 236.282C148.679 238.324 148.434 240.362 148.261 242.403C148.157 243.607 148.405 244.609 149.505 245.241C150.046 245.553 150.465 245.422 151.003 245.171C152.315 244.554 152.352 243.098 152.477 241.83C152.572 240.875 152.66 239.919 152.745 238.962C152.928 236.92 153.086 234.878 153.215 232.832C153.723 224.704 153.871 216.584 153.52 208.447C153.358 204.64 153.123 200.825 152.811 197.026L152.738 196.149C152.481 193.113 152.315 189.927 151.783 186.871C153.927 185.919 156.052 184.708 157.037 182.695C158.315 180.082 156.911 177.848 154.911 176.309C154.93 176.05 154.911 175.792 154.856 175.558C154.282 173.068 153.32 170.607 152.391 168.232C151.454 165.845 150.42 163.495 149.283 161.196C144.718 151.985 138.483 143.569 131.05 136.478C127.357 132.957 123.317 129.702 119.003 126.972C116.865 125.62 114.672 124.372 112.402 123.261L112.066 123.097C110.485 122.329 108.712 121.512 106.955 121.084C106.772 120.948 106.587 120.819 106.4 120.696C105.708 120.236 104.77 120.569 104.361 121.227C104.162 121.073 103.932 120.936 103.669 120.813L103.41 120.694C101.832 119.983 99.9386 119.318 98.2266 119.786C97.1633 120.076 96.3259 120.86 95.9499 121.859C95.0874 121.402 94.2403 120.932 93.4126 120.357C92.0826 119.437 90.8772 118.294 89.7944 117.094C87.6231 114.682 86.0457 111.857 85.3408 108.676ZM9.99855 184.729C10.1465 184.773 10.3023 184.788 10.464 184.768C10.172 184.803 10.7569 184.976 10.9174 185.059L10.9294 185.065C11.2215 185.233 11.5154 185.394 11.8135 185.551C12.5087 185.917 13.2193 186.247 13.942 186.557C15.3655 187.163 16.8358 187.629 18.345 187.971C19.8211 188.304 21.3693 188.499 22.8824 188.53C23.8951 188.55 25.0966 188.503 26.1443 188.204C26.0233 190.043 25.8892 191.88 25.7392 193.715L23.6701 193.24C21.6008 192.765 19.5338 192.278 17.4921 191.685C15.9595 191.241 14.4483 190.72 12.9547 190.158C12.1718 189.864 11.3948 189.552 10.6276 189.217C10.2457 189.05 9.88768 188.851 9.53391 188.65L9.23128 188.478C9.30138 187.657 9.42992 186.851 9.61667 186.04C9.71404 185.611 9.87976 185.17 9.99855 184.729ZM151.686 176.069C151.949 176.923 152.352 177.721 153.271 177.914C153.596 177.982 153.869 177.945 154.095 177.834L154.149 177.944C154.905 179.497 155.127 181.136 153.388 182.333C152.603 182.873 151.748 183.341 150.864 183.76C149.283 184.514 147.6 185.119 146.012 185.735L145.696 185.859C142.857 186.974 139.973 187.99 137.044 188.84C134.072 189.7 131.048 190.391 127.986 190.829C126.695 191.013 125.394 191.142 124.091 191.225C124.07 189.47 124.08 187.713 124.086 185.958C124.549 185.899 125.009 185.837 125.453 185.784C126.804 185.627 128.152 185.434 129.492 185.194C132.29 184.693 135.059 184 137.76 183.115C142.765 181.471 147.421 179.121 151.686 176.069ZM96.8147 122.309C97.952 121.104 100.127 121.539 101.5 122.124C101.915 122.301 102.334 122.481 102.731 122.697L102.808 122.74C103.27 123.007 103.268 123.166 103.042 123.697C102.748 124.398 102.339 125.074 101.95 125.724C100.283 128.51 98.0883 130.936 95.582 132.986C86.7059 140.24 73.9544 142.799 62.8543 140.369C57.5271 139.204 52.3884 136.853 48.4667 132.996L48.1096 132.64C46.5283 131.056 44.3578 128.762 44.51 126.414C44.5821 125.285 45.5032 125.22 46.4438 125.002C46.8292 124.912 47.1974 124.786 47.5168 124.606C47.2597 125.716 48.6285 127.365 49.3356 128.058C50.8176 129.511 52.6014 130.646 54.4882 131.494C58.0794 133.111 61.9856 133.875 65.8747 134.359C70.2875 134.909 74.7957 134.86 79.1753 134.047C82.9864 133.339 86.7429 131.999 90.0223 129.913C91.5256 128.957 93.0076 127.867 94.2617 126.597L94.5282 126.328C95.4337 125.409 96.4872 124.299 97.0289 123.093C97.2354 123.095 97.4398 123.089 97.6443 123.075C97.7884 123.068 97.8661 122.863 97.7222 122.787C97.5606 122.701 97.3989 122.615 97.2373 122.531C97.2644 122.442 97.2879 122.354 97.3074 122.264C97.323 122.188 97.2431 122.118 97.173 122.161C97.0757 122.219 96.9822 122.282 96.8907 122.348C96.8653 122.336 96.84 122.323 96.8147 122.309Z" fill="black"/>
<path fill-rule="evenodd" clip-rule="evenodd" d="M39.0283 66.7223C39.491 60.7269 38.774 54.4429 41.0824 48.7444C45.1072 39.2893 56.3935 36.1368 65.1433 32.5371C68.6486 31.5 80.4436 31.355 84.5479 29.9822C93.8369 26.8754 96.0563 23.1736 103.437 29.0892C104.683 30.0997 105.463 31.198 106.031 32.6986L106.008 32.705C106.17 33.3306 105.996 33.9549 105.63 34.4317C108.831 37.7074 110.17 42.6185 108.528 46.9791C103.169 58.3265 103.421 64.4621 105.148 76.6611C107.403 88.0496 102.25 92.2098 93.7177 98.4064C94.0652 99.0809 94.1372 99.9774 93.6842 100.573C83.8175 114.457 65.2136 121.086 49.2737 114.039C42.8035 111.155 39.9149 104.255 38.2665 98.029C36.3462 91.0577 35.7561 83.7117 37.3195 76.6102C37.95 73.3259 38.7714 70.0653 39.0283 66.7223Z" fill="white"/>
<path fill-rule="evenodd" clip-rule="evenodd" d="M95.9418 0.295234C94.7441 0.115141 93.8397 0.859243 93.4094 1.90804L93.3868 1.96451C93.2486 2.32138 93.0947 2.6685 92.9292 3.00976C89.9322 1.53744 85.6557 1.91576 83.759 4.89745C82.4056 7.02695 83.2312 9.55427 83.7415 11.8125L84.0764 13.3004C83.429 13.713 82.9407 14.4519 82.9636 15.2169L82.9664 15.2758L83.1027 17.3507C82.6704 16.912 82.2751 16.4342 81.9226 15.9252C81.6792 15.4787 81.4163 15.0399 81.1339 14.6148C79.4728 12.1128 75.7436 14.2871 77.1145 16.9666C77.3774 17.4834 77.6734 17.9728 77.9908 18.4447C78.3492 19.1409 78.6432 19.8566 78.8691 20.5918C78.2206 20.8746 77.7221 21.5025 77.6695 22.4502C77.5468 24.6636 78.7075 26.5103 80.5536 27.6706C81.0969 28.0119 81.6578 28.0782 82.166 27.9515C82.2556 28.0724 82.3452 28.1933 82.4309 28.3161C81.6948 28.9148 81.0307 29.5973 80.4601 30.354C78.7425 30.0966 77.0152 29.9756 75.2879 29.9717C73.1769 28.9362 70.6492 28.9577 68.3805 29.3458C66.92 29.5954 65.5179 30.081 64.0807 30.43C62.5656 30.7966 61.0272 30.8103 59.4946 31.0599C57.5628 31.3739 55.8686 32.267 54.8034 33.6925C53.633 33.7276 52.4023 34.2074 51.3818 34.8587C49.006 36.3759 46.6439 37.9145 44.2739 39.4414C43.3643 40.0276 43.0243 40.9634 43.1915 42.0073L43.2028 42.074L43.2827 42.5069L43.0952 42.7734C42.3699 43.799 41.5807 44.8733 41.1114 46.0054C40.2428 47.2593 39.458 48.5737 38.7628 49.929C37.8261 51.7504 37.053 53.681 36.5292 55.6623C36.3987 56.1634 36.2682 56.6685 36.1825 57.1794C36.0599 57.901 36.2487 58.4607 36.352 59.1529C36.4805 60.0305 36.5272 60.9197 36.6635 61.7992C36.7551 62.3823 37.2497 62.669 37.7677 62.6846C37.573 64.1686 37.4328 65.6624 37.2984 67.1444C37.1095 69.2622 36.981 71.3859 36.87 73.5095C36.2974 74.3422 35.1271 75.0013 34.2819 75.2295C33.1115 75.5435 31.8847 75.2022 30.7785 74.8024C30.0833 74.5509 29.5128 75.4265 29.8516 76.0115C30.9168 77.8485 33.1953 77.8407 34.9206 77.0275C35.6509 76.6843 36.2916 76.187 36.7668 75.5396C36.7375 76.1558 36.7064 76.772 36.6752 77.3902L36.6462 77.9501C36.2954 84.4892 35.538 91.2531 36.7648 97.7277C38.8894 108.943 48.1575 117.482 59.479 118.145C65.4201 118.493 70.3675 116.736 72.8277 115.756C75.2879 114.775 74.3317 112.777 72.6238 113.348C69.6817 114.332 64.277 115.799 59.4401 115.165C48.0401 113.673 38.3733 107.967 39.3665 83.3926C39.5073 79.9077 39.941 76.421 40.0345 72.9362C40.124 69.5294 40.0909 66.1206 40.2409 62.7158L40.2909 61.5541C40.3494 60.1966 40.412 58.8329 40.5135 57.4739C40.6362 56.9474 40.7375 56.4131 40.8874 55.8963C41.2944 54.4903 41.826 53.1232 42.4862 51.8186C42.6323 51.9298 42.7958 52.0097 42.973 52.0409C44.3187 52.2828 45.5806 52.2145 46.8405 51.6529C47.4287 51.3935 47.9467 51.0484 48.4296 50.6213C48.6594 50.4204 48.8132 50.2254 48.934 50.0226C49.5435 50.0324 50.153 49.849 50.5347 49.4103C50.9701 48.9102 51.0425 48.3936 50.872 47.9154L50.8541 47.8678L50.8969 47.8521C51.411 49.1841 52.4354 50.3561 53.559 51.1478C55.335 52.4037 57.557 52.7664 59.6874 52.7995C62.0399 52.8346 64.5208 52.4719 66.8421 52.1014C67.4555 52.0039 68.065 51.8927 68.6629 51.7426C68.6863 51.766 68.7096 51.7933 68.7349 51.8167C70.7271 53.7258 73.5294 54.2173 76.0571 53.1271C77.5176 52.4973 78.7425 51.4832 79.8253 50.321C79.8409 50.9294 79.872 51.5378 79.9246 52.1404L79.9464 52.3797C80.0542 53.502 80.2616 54.6924 81.1086 55.5024C82.4776 56.8148 84.4639 56.2882 86.0433 55.4341C86.0413 55.4751 86.0413 55.518 86.0413 55.5609C85.6148 57.0117 85.1864 58.4646 84.758 59.9174L84.6657 60.2269C84.3542 61.2584 84.0125 62.2913 83.9187 63.371C83.7395 65.4342 85.1105 67.472 87.4006 66.7798C88.6018 66.4179 89.5642 65.4065 90.4876 64.5964L91.0695 64.0925C89.5641 69.0204 88.5203 74.1238 88.423 79.2662C88.4171 79.5451 88.6567 79.7557 88.9215 79.7654C89.5408 79.7908 90.2068 79.6679 90.8299 79.4202C90.865 79.4183 90.9 79.4164 90.937 79.4105C92.0003 79.2564 92.9876 78.8723 93.8581 78.3048C93.6575 78.9425 93.5679 79.627 93.6205 80.3426C93.6342 80.5162 93.9048 80.5767 93.9438 80.3855C94.4462 77.9109 97.3381 76.0407 99.8307 76.5146C102.506 77.0236 104.477 79.3286 104.96 81.9515C105.478 84.7694 104.487 88.028 102.651 90.2023C101.805 91.2047 100.693 92.0413 99.3731 92.2519C98.7694 92.3474 98.1423 92.3143 97.5562 92.1427C97.3069 92.0686 97.0732 91.9652 96.8356 91.8677C96.489 91.7273 96.084 91.7058 95.7568 91.5576C95.0148 91.2242 94.269 91.9086 94.6448 92.6711C94.972 93.3361 95.2661 93.7846 95.8094 94.1279C95.3693 94.6661 94.9701 95.4149 94.8221 95.6158C94.0665 96.6376 93.2992 97.6029 92.4385 98.537C91.5621 99.4848 90.606 100.351 89.5953 101.152L89.1705 101.488C88.1969 102.261 87.3492 102.978 86.6625 104.087C86.1212 104.963 86.8222 106.15 87.8368 106.137C91.011 106.092 93.3187 103.299 94.9623 100.86C95.196 100.511 95.416 100.142 95.6205 99.7636C95.6945 99.8826 95.7763 99.9937 95.8678 100.095L95.6867 100.583C95.1492 102.018 97.4647 102.956 98.1365 101.616C98.6253 100.645 99.192 99.7207 99.8229 98.8471C100.195 98.7944 100.559 98.5682 100.762 98.2757C101.274 97.5327 101.848 96.7819 102.333 95.9902C102.602 95.7347 102.878 95.489 103.161 95.2492C103.243 95.3213 103.326 95.3935 103.406 95.4695C103.761 96.2788 104.199 97.0179 104.742 97.7141L104.858 97.8626C105.899 99.1762 107.255 100.521 108.933 100.842C109.445 100.94 109.938 100.302 109.484 99.8943C108.31 98.8373 106.921 98.1177 105.838 96.9379C105.305 96.3567 104.815 95.7166 104.394 95.0457L104.298 94.8903C104.228 94.7753 104.156 94.6602 104.082 94.5432C104.571 94.2098 105.059 93.8743 105.548 93.5389C106.894 94.6901 108.646 95.2167 110.134 96.1703L110.282 96.2671C111.628 97.168 113.046 95.175 111.967 94.081C110.778 92.8796 109.785 91.4469 108.731 90.1114C109.227 89.1976 109.461 88.1171 109.549 87.025C109.584 86.7159 109.611 86.4067 109.638 86.0974C110.393 86.1091 111.153 85.8497 111.795 85.4031L112.039 85.2296C112.82 85.4792 113.64 85.6001 114.424 85.5786C116.271 85.524 117.026 83.4121 115.871 82.0763C114.693 80.7112 112.631 80.4128 110.997 81.0759C110.944 81.0486 110.89 81.0193 110.837 80.9901C110.915 80.6313 110.898 80.3058 110.809 80.0199L110.835 79.8456C111.194 79.2935 111.43 78.6632 111.52 77.9973C111.591 77.4698 111.577 76.947 111.455 76.4261C111.414 76.2527 111.33 76.0731 111.265 75.8923C111.398 75.5565 111.476 75.2094 111.5 74.8604C111.538 74.8161 111.575 74.7706 111.61 74.7215C112.42 73.5817 112.257 72.2082 111.485 71.2858C111.482 71.2271 111.476 71.1684 111.468 71.1101C111.513 71.0083 111.555 70.9056 111.593 70.8016C112.346 70.0401 112.9 69.1238 112.797 67.9882C112.736 67.3201 112.462 66.7187 112.047 66.2692C112.12 66.0512 112.127 65.7987 112.038 65.5879C112.701 63.8238 112.617 61.6992 112.14 59.7263C112.245 59.4259 112.3 59.1003 112.288 58.7551C112.234 57.2906 110.968 55.945 109.468 55.9626C109.288 55.9641 109.119 55.9877 108.956 56.0223L108.954 55.9873C108.897 55.5478 108.776 55.1416 108.6 54.7771C108.686 54.7457 108.767 54.7007 108.837 54.6408C109.798 55.1541 110.815 55.5464 111.881 55.8138C112.664 56.0104 113.467 55.1182 112.98 54.3815C112.754 54.0396 112.504 53.7327 112.236 53.4522C112.618 53.4544 113.006 53.4803 113.398 53.5308C114.103 53.6225 114.89 53.1408 115.347 52.4895C115.916 53.0433 116.487 53.5952 117.057 54.147C118.502 55.5492 120.685 54.5176 120.913 52.6689C121.343 52.5538 121.745 52.3588 122.097 52.0799C124.376 53.0706 126.827 53.6147 129.334 53.718C131.133 53.7921 132.184 51.6938 131.343 50.2118C130.778 49.2172 130.077 48.3241 129.269 47.5479C130.523 47.9321 131.818 48.209 133.141 48.3865C133.855 48.482 134.866 47.8892 135.152 47.232C136.247 44.7047 136.153 42.0701 134.893 39.6111C134.845 39.5135 134.79 39.4199 134.738 39.3263C134.607 39.0007 134.465 38.6789 134.311 38.363C135.861 36.7444 135.996 34.338 135.16 32.3236C135.495 31.7795 135.624 31.1243 135.396 30.5314C134.747 28.8251 133.813 27.2494 132.632 25.8961C132.745 25.6776 132.845 25.4456 132.928 25.196C133.592 23.1776 132.823 20.742 131.271 19.3359C130.296 18.4506 129.174 17.9202 127.976 17.5809C127.472 16.6877 126.823 15.8823 126.068 15.2037C126.039 15.1393 126.009 15.075 125.976 15.0106C124.8 12.7914 122.658 11.6019 120.362 11.3269C120.272 10.4591 119.688 9.63033 118.839 9.36122C118.605 8.61043 118.257 7.8928 117.778 7.24146C117.024 6.21572 115.772 5.73209 114.592 6.40488C113.945 6.77344 113.326 7.19661 112.746 7.66463C112.485 7.54223 112.19 7.46302 111.856 7.43776L111.772 7.43257L109.852 7.33507C109.048 6.9782 108.245 6.60378 107.441 6.23912C106.958 5.83935 106.419 5.50588 105.831 5.25822C105.165 4.97936 104.483 4.8214 103.799 4.76875C103.244 4.58739 102.686 4.42748 102.117 4.30267C100.781 4.01016 99.3828 3.84635 97.9963 3.86C97.9679 3.50063 97.9538 3.13696 97.9565 2.76899L97.9593 2.58464C97.9904 1.40484 97.0499 0.462942 95.9418 0.295234ZM97.2874 94.6895C97.4783 94.7304 97.6711 94.7636 97.8639 94.787C97.8054 94.9313 97.747 95.0756 97.6905 95.2199C97.5348 95.3077 97.377 95.3915 97.2193 95.4695C97.266 95.2043 97.2933 94.9371 97.2874 94.6895ZM107.292 91.7123L107.422 91.951C107.443 91.9901 107.464 92.0286 107.484 92.0666C107.209 92.0452 106.933 92.051 106.66 92.0822L106.661 92.0531C106.696 92.0413 106.731 92.0303 106.765 92.014C106.953 91.9235 107.128 91.8221 107.292 91.7123ZM101.885 80.8204C100.162 80.9209 98.7026 81.1855 97.1358 81.9402L97.0012 82.0061C95.6166 82.6945 93.3265 83.9659 93.5193 85.7893C93.5738 86.308 93.9496 86.854 94.5416 86.8131C96.1638 86.7019 97.0908 85.0638 98.1891 84.042C99.2971 83.0123 100.658 81.9534 102 81.2456C102.19 81.1459 102.115 80.8305 101.909 80.8203L101.885 80.8204ZM109.698 56.7972C110.111 56.8109 109.973 57.2126 109.76 56.8772C109.743 56.8499 109.721 56.8226 109.698 56.7972ZM87.4131 29.9792C91.323 30.0821 95.2581 32.394 98.1871 34.7308C100.735 36.7637 102.936 39.1818 104.884 41.7881C105.385 43.0861 105.816 44.4112 106.179 45.746C106.419 46.6275 106.569 47.5187 106.769 48.4079L106.832 48.6805C106.989 48.9754 107.106 49.2927 107.191 49.6205C106.836 49.977 106.376 50.2322 105.869 50.3533C105.705 50.3923 105.57 50.4768 105.462 50.5887C105.054 49.9066 104.697 49.1866 104.49 48.4233L104.482 48.388C103.698 47.1012 102.845 45.8543 101.932 44.6501C99.412 41.3252 96.637 38.2947 93.3012 35.7733C90.7715 33.8622 87.9439 32.3645 84.9371 31.3914C85.6731 30.7968 86.5089 30.3265 87.4131 29.9792Z" fill="black"/>
<path fill-rule="evenodd" clip-rule="evenodd" d="M56.9277 102.438C58.2368 101.903 59.4048 101.011 60.2588 99.8716C60.5557 99.4755 60.6327 99.0572 60.5704 98.6745C60.5003 98.2443 60.2462 97.8544 59.8995 97.5928C59.5518 97.3305 59.1169 97.2011 58.6964 97.2671C58.331 97.3244 57.9673 97.5247 57.6794 97.9402L57.6193 98.0233C57.1116 98.7111 56.45 99.2754 55.6962 99.6391C54.9697 99.9897 54.1571 100.153 53.3163 100.058C51.7148 99.877 50.6109 99.0097 49.4377 97.8319C49.2922 97.6832 49.1467 97.5299 49.0005 97.374C48.9082 97.2328 48.78 97.142 48.6377 97.0944C48.4797 97.0415 48.301 97.0445 48.1373 97.1017C47.9795 97.1568 47.8383 97.2614 47.7437 97.4005C47.6538 97.5328 47.6028 97.6962 47.6193 97.8841C47.7267 99.1047 48.3639 100.194 49.2691 101.049C50.2745 101.999 51.6071 102.657 52.8617 102.887C54.2439 103.141 55.6524 102.959 56.9277 102.438ZM52.2097 83.608C50.7391 84.5031 48.4985 86.5903 50.0804 88.8094C51.9426 90.766 54.6236 88.5226 55.9448 87.508C57.1698 86.7217 58.5462 88.7441 57.4096 89.6622C47.8628 96.7401 43.9886 83.8421 51.4659 82.5556C52.2892 82.4139 52.5949 83.3311 52.2097 83.608ZM69.3176 75.3746C69.1551 73.355 66.0836 72.8964 65.778 74.8949C65.5044 76.6851 65.8265 78.3296 66.6318 79.9413C67.4012 81.4811 69.335 80.7627 69.4813 79.3606C69.6773 77.4811 69.4187 76.6309 69.3176 75.3746ZM45.9366 74.4805C45.5084 73.9189 44.8901 73.5355 44.1493 73.7521C41.8349 74.4294 42.517 77.7198 43.3299 79.3214C43.7715 80.1912 45.1992 80.4117 45.8443 79.6459C46.8959 78.3971 47.3995 75.9031 46.0626 74.673C46.0264 74.6094 45.9861 74.5452 45.9366 74.4805ZM66.6644 66.5376L66.2988 66.4735C65.1678 66.2776 63.7615 66.0894 62.9614 66.9999C62.5371 67.4828 62.391 68.3802 62.9614 68.8424C63.9647 69.6556 65.0739 69.3404 66.2763 69.4093C67.2671 69.4662 68.2194 69.6304 69.1738 69.9036C71.2676 70.5029 72.9737 71.5969 74.762 72.7982C74.9966 72.9557 75.2362 72.6552 75.1242 72.4354C74.0919 70.4107 72.0913 68.7474 70.0875 67.7336C69.018 67.1924 67.8476 66.7435 66.6644 66.5376ZM48.0464 65.6306L47.7666 65.6879C44.7215 66.3253 40.7651 67.5986 39.323 70.5938C39.2681 71.0174 39.3261 71.1082 39.3734 71.1675L39.3891 71.1872C39.428 71.2378 39.459 71.3076 39.6423 71.3653C39.6932 71.3532 39.7446 71.3403 39.7965 71.3267C40.4575 71.1532 40.9805 70.9142 41.4868 70.6663L42.0358 70.3954C42.6727 70.0827 43.3152 69.7814 43.9961 69.5589C45.4493 69.0843 46.944 68.7499 48.4618 68.5714C48.7908 68.5327 49.1076 68.4215 49.3575 68.231C49.5948 68.0501 49.776 67.7997 49.8586 67.4668C49.9657 67.036 49.9349 66.7099 49.7041 66.3212C49.5306 66.0294 49.2822 65.8271 48.9971 65.7109C48.7064 65.5925 48.3754 65.5646 48.0464 65.6306Z" fill="black"/>
<path fill-rule="evenodd" clip-rule="evenodd" d="M29.5966 68.7612C29.7569 68.7345 29.9174 68.7093 30.0778 68.6857C30.203 68.6146 30.3501 68.5598 30.5211 68.5268C30.9115 68.4276 31.2992 68.3607 31.6864 68.3246C37.2426 67.0724 50.0967 68.8503 50.6272 73.5984C52.3966 74.1899 53.9276 73.6602 55.9784 73.7129C57.5394 67.1791 84.5268 68.1013 85.8247 72.0405C85.8296 72.0391 85.8344 72.038 85.8395 72.0364C87.0866 71.6499 88.9251 71.7431 90.3526 71.6819C93.4004 71.6179 96.4518 71.8899 99.4338 72.5337C105.018 73.4223 112.639 74.4627 108.755 81.4456C108.755 81.4468 108.754 81.4481 108.753 81.4493L108.752 81.4487C108.083 82.1357 106.947 81.5825 106.905 80.6525C108.211 77.3444 105.262 76.9471 102.992 75.9964C97.3464 73.9652 91.5981 73.6836 85.7587 74.312C85.3194 74.8299 84.6528 75.2815 83.9482 75.5179C80.0439 76.1669 82.1015 79.0671 79.6336 79.4889C80.087 89.5985 67.8299 95.1169 60.728 88.4712C57.8925 85.695 57.2165 81.5825 56.5591 77.8756C56.2115 77.7974 55.9905 77.607 55.8613 77.3551C55.0253 76.5193 54.5001 75.7474 52.847 75.5179C51.1939 75.2886 49.9212 75.749 49.7491 75.89C49.7057 75.9775 49.6591 76.0653 49.605 76.153C49.5294 76.2839 49.4266 76.3882 49.3098 76.4703C50.9423 86.5375 43.1377 92.9041 35.2588 87.6828C31.8354 84.4579 31.1119 79.5207 30.969 75.1138C30.5049 74.8334 30.211 74.2899 30.3717 73.6066C30.5931 72.6647 30.0739 71.8492 29.2471 71.4397C28.1727 70.9079 28.3628 68.9658 29.5966 68.7612ZM63.4514 73.5372C64.4293 73.3218 64.847 74.8317 63.8659 75.0477C63.1712 75.2007 62.5824 75.5515 62.1846 76.1458L62.1427 76.2105C61.6089 77.0611 60.2591 76.2759 60.7966 75.4198C61.4013 74.4564 62.3411 73.7816 63.4514 73.5372ZM34.8081 72.601C35.1529 72.3578 35.6746 72.5384 35.8747 72.882C36.095 73.2604 35.9506 73.6818 35.6278 73.9293L35.5949 73.9535C35.2987 74.1625 35.0103 74.5372 34.974 74.9212L34.9708 74.9692C34.9321 75.9739 33.3727 75.979 33.4117 74.9692C33.4497 73.9813 34.0209 73.156 34.8081 72.601Z" fill="black"/>
</svg>
