<svg width="63" height="63" viewBox="0 0 63 63" fill="none" xmlns="http://www.w3.org/2000/svg">
<circle cx="31.5" cy="31.5" r="30.5" fill="white" stroke="#101920" stroke-width="2"/>
<path d="M31.1228 17.5957H31.3342C33.2865 17.6028 43.1787 17.6741 45.846 18.3914C46.6523 18.6103 47.387 19.037 47.9768 19.6288C48.5665 20.2206 48.9906 20.9569 49.2067 21.764C49.4466 22.6665 49.6152 23.8612 49.7292 25.0939L49.753 25.3409L49.8052 25.9584L49.8242 26.2054C49.9786 28.3762 49.9976 30.4093 50 30.8534V31.0316C49.9976 31.4923 49.9762 33.6632 49.8052 35.9242L49.7862 36.1736L49.7648 36.4206C49.6461 37.7792 49.4703 39.1282 49.2067 40.121C48.9913 40.9284 48.5674 41.665 47.9776 42.257C47.3877 42.8489 46.6526 43.2754 45.846 43.4936C43.0909 44.2347 32.6191 44.2869 31.1679 44.2893H30.8307C30.0968 44.2893 27.0614 44.275 23.8788 44.1658L23.475 44.1515L23.2684 44.142L22.8622 44.1254L22.4561 44.1088C19.8198 43.9924 17.3093 43.8048 16.1526 43.4913C15.3463 43.2732 14.6114 42.8471 14.0215 42.2556C13.4317 41.6641 13.0076 40.928 12.7919 40.121C12.5282 39.1306 12.3525 37.7792 12.2337 36.4206L12.2147 36.1713L12.1957 35.9242C12.0785 34.3149 12.0136 32.7021 12.001 31.0886L12.001 30.7964C12.0057 30.2858 12.0247 28.5211 12.153 26.5735L12.1696 26.3289L12.1767 26.2054L12.1957 25.9584L12.248 25.3409L12.2717 25.0939C12.3857 23.8612 12.5544 22.6641 12.7943 21.764C13.0097 20.9566 13.4335 20.22 14.0234 19.628C14.6132 19.0361 15.3484 18.6096 16.155 18.3914C17.3117 18.0826 19.8221 17.8926 22.4585 17.7738L22.8622 17.7572L23.2708 17.743L23.475 17.7358L23.8812 17.7192C26.1415 17.6465 28.4029 17.6061 30.6644 17.5981H31.1228V17.5957ZM27.2015 25.2197V36.6629L37.0748 30.9437L27.2015 25.2197Z" fill="#101920"/>
</svg>
