<svg width="28" height="49" viewBox="0 0 28 49" fill="none" xmlns="http://www.w3.org/2000/svg">
<path d="M27.449 15.9961V25.4478C27.449 27.1687 26.4158 28.6353 24.9752 29.1992C25.3207 29.6652 25.526 30.2356 25.526 30.8548C25.526 35.4373 23.0523 39.5243 19.3433 41.7764H20.1484C22.0746 41.7764 23.639 43.3441 23.639 45.2703C23.639 47.1965 22.0713 48.7609 20.1484 48.7609H5.38094C3.45475 48.7609 1.88708 47.1932 1.88708 45.2703C1.88708 43.3473 3.45475 41.7764 5.38094 41.7764H6.18596C2.47373 39.5276 0 35.4405 0 30.8581C0 29.3295 1.24501 28.0845 2.77358 28.0845C2.8355 28.0845 2.90069 28.0878 2.96261 28.0943V14.1286C1.36235 12.9227 0.469325 10.9639 0.469325 8.56192C0.469325 4.92139 2.61714 1.86752 6.07515 0.589915C7.13764 0.195552 8.26533 0 9.4256 0C12.2481 0 14.8456 1.37864 16.5209 3.64378C17.2803 3.31461 18.1048 3.13861 18.9457 3.13861C19.1967 3.13861 19.4509 3.1549 19.7051 3.1875C22.7557 3.56882 25.0567 6.17292 25.0567 9.25287C25.0567 10.2469 24.8188 11.2084 24.3755 12.0623C26.1225 12.4175 27.449 14.0471 27.449 15.9994" fill="#FFF9F3"/>
<path d="M10.7097 15.4771H15.8788C16.0385 15.4771 16.1298 15.6205 16.0385 15.7247L13.6528 18.3419C13.5583 18.4462 13.6528 18.5896 13.8125 18.5896H16.9152C17.0782 18.5896 17.1695 18.7395 17.0684 18.8405L11.1204 24.8375C11.0096 24.9515 10.7814 24.8929 10.7717 24.7495L10.449 19.2121C10.4425 19.1306 10.3577 19.0622 10.2534 19.0622H8.61733C8.47066 19.0622 8.37615 18.9383 8.44459 18.8373L10.537 15.565C10.5696 15.5129 10.638 15.4803 10.7097 15.4803" fill="#101820"/>
<path d="M23.6619 13.9406H20.6211V13.0672C20.8362 12.9726 21.048 12.8618 21.2468 12.7282C22.4136 11.9525 23.1111 10.6554 23.1111 9.2539C23.1111 7.15824 21.5434 5.38197 19.4673 5.12124C19.2946 5.09842 19.1186 5.08865 18.9459 5.08865C17.7334 5.08865 16.6383 5.61012 15.8757 6.44121C14.7904 3.78822 12.2645 1.94678 9.42573 1.94678C8.4936 1.94678 7.59406 2.10322 6.75319 2.4161C4.08065 3.40364 2.41846 5.76004 2.41846 8.56295C2.41846 11.1508 3.63414 12.4544 4.90848 13.0313V30.6571C4.90848 34.9885 8.43168 38.5117 12.7632 38.5117C17.0946 38.5117 20.6178 34.9885 20.6178 30.6571V27.5087H23.6587C24.6723 27.5087 25.4968 26.5831 25.4968 25.4489V15.9972C25.4968 14.8597 24.6723 13.9374 23.6587 13.9374L23.6619 13.9406ZM7.05304 33.0754C6.91941 32.756 6.81186 32.4235 6.73038 32.0813L11.4986 27.3131H12.8153L7.0563 33.0721L7.05304 33.0754ZM6.56416 29.663V27.3164H8.91078L6.56416 29.663ZM8.04057 34.6724L15.3998 27.3131H16.7166L8.69567 35.334C8.46101 35.1287 8.24264 34.9071 8.04057 34.6724ZM13.8094 36.7713L18.8709 31.7098C18.4309 34.2911 16.3906 36.3313 13.8094 36.7713ZM18.9622 29.0112L11.29 36.6833C10.9445 36.5986 10.6088 36.4845 10.2894 36.3444L18.9622 27.6716V29.0079V29.0112ZM18.9622 26.0583H6.56416V13.4224H18.9622V26.0583ZM20.3278 11.3496C19.9171 11.6201 19.438 11.7667 18.9426 11.7667H6.66193C6.22846 11.7667 4.07413 11.6136 4.07413 8.56621C4.07413 6.47381 5.3224 4.71384 7.33007 3.97074C7.98843 3.7263 8.69241 3.60571 9.42899 3.60571C12.007 3.60571 14.3341 5.74049 14.7252 8.46518L14.735 8.53036C14.7676 8.77154 14.7839 9.01598 14.7839 9.25716H16.4395C16.4395 7.872 17.564 6.74758 18.9491 6.74758C19.0534 6.74758 19.1577 6.7541 19.2653 6.76713C20.5168 6.92357 21.462 7.99259 21.462 9.25716C21.462 10.1013 21.0415 10.8835 20.3375 11.3528L20.3278 11.3496ZM23.8542 25.4554C23.8542 25.7259 23.7043 25.8595 23.6684 25.8595H20.6276V15.5963H23.6684C23.7043 15.5963 23.8542 15.7299 23.8542 16.0004V25.4521V25.4554Z" fill="#101820"/>
<path d="M23.5804 30.8575C23.5804 30.4012 23.2088 30.0297 22.7525 30.0297C22.2962 30.0297 21.9247 30.4012 21.9247 30.8575C21.9247 35.9093 17.8148 40.0191 12.7631 40.0191C7.71132 40.0191 3.60147 35.9093 3.60147 30.8575C3.60147 30.4012 3.22993 30.0297 2.77364 30.0297C2.31735 30.0297 1.9458 30.4012 1.9458 30.8575C1.9458 36.5415 6.3555 41.2152 11.9352 41.6389V43.7248H5.381C4.52709 43.7248 3.83288 44.419 3.83288 45.2729C3.83288 46.1268 4.52709 46.8211 5.381 46.8211H20.1452C20.9991 46.8211 21.6933 46.1268 21.6933 45.2729C21.6933 44.419 20.9991 43.7248 20.1452 43.7248H13.5909V41.6389C19.1707 41.2152 23.5804 36.5415 23.5804 30.8575" fill="#101820"/>
<path opacity="0.05" d="M19.7897 12.5862V30.6552C19.7897 34.5369 16.6446 37.682 12.7629 37.682C12.2577 37.682 11.7656 37.6299 11.293 37.5288C11.293 37.5288 22.5372 22.0965 16.902 12.5862H19.7897V12.5862Z" fill="#03035B"/>
<path opacity="0.05" d="M22.2829 9.24299C22.2829 10.4065 21.6898 11.4299 20.787 12.0263C19.014 12.4696 17.2149 12.5641 16.3121 12.5804C15.934 12.5869 15.7124 12.5804 15.7124 12.5804C15.8167 12.5609 24.2613 10.8302 19.3627 5.93164C21.0086 6.13697 22.2829 7.54168 22.2829 9.24299" fill="#03035B"/>
</svg>
