<svg width="46" height="46" viewBox="0 0 46 46" fill="none" xmlns="http://www.w3.org/2000/svg">
<path d="M36.2917 20.3142C28.9877 15.9775 16.7764 15.521 9.81474 17.6894C8.67349 18.0317 7.53224 17.347 7.18987 16.3199C6.84749 15.1786 7.53224 14.0374 8.55937 13.695C16.6622 11.2984 30.0148 11.7549 38.4601 16.7764C39.4872 17.347 39.8296 18.7165 39.259 19.7436C38.6883 20.5425 37.3188 20.8849 36.2917 20.3142ZM36.0635 26.7052C35.4928 27.5041 34.4657 27.8465 33.6668 27.2758C27.5041 23.5097 18.1459 22.3685 10.956 24.651C10.043 24.8792 9.01587 24.4227 8.78762 23.5097C8.55937 22.5967 9.01587 21.5696 9.92887 21.3414C18.26 18.8306 28.5312 20.086 35.607 24.4227C36.2917 24.7651 36.6341 25.9064 36.0635 26.7052ZM33.3245 32.9821C32.868 33.6668 32.0691 33.8951 31.3843 33.4386C26.0205 30.129 19.2871 29.4442 11.2984 31.2702C10.4995 31.4985 9.81474 30.9278 9.58649 30.2431C9.35824 29.4442 9.92887 28.7595 10.6136 28.5312C19.2871 26.5911 26.8194 27.39 32.7538 31.042C33.5527 31.3843 33.6668 32.2973 33.3245 32.9821ZM22.825 0C19.8276 0 16.8595 0.590386 14.0902 1.73745C11.321 2.88451 8.80478 4.56579 6.68528 6.68528C2.40477 10.9658 0 16.7714 0 22.825C0 28.8785 2.40477 34.6842 6.68528 38.9647C8.80478 41.0842 11.321 42.7654 14.0902 43.9125C16.8595 45.0596 19.8276 45.65 22.825 45.65C28.8785 45.65 34.6842 43.2452 38.9647 38.9647C43.2452 34.6842 45.65 28.8785 45.65 22.825C45.65 19.8276 45.0596 16.8595 43.9125 14.0902C42.7654 11.321 41.0842 8.80478 38.9647 6.68528C36.8452 4.56579 34.329 2.88451 31.5597 1.73745C28.7905 0.590386 25.8224 0 22.825 0Z" fill="#FEF9F3"/>
</svg>
