<svg width="24" height="25" viewBox="0 0 24 25" fill="none" xmlns="http://www.w3.org/2000/svg">
<path d="M23.04 0.666626H0.96C0.429 0.666626 0 1.09563 0 1.62663V23.7066C0 24.2376 0.429 24.6666 0.96 24.6666H23.04C23.571 24.6666 24 24.2376 24 23.7066V1.62663C24 1.09563 23.571 0.666626 23.04 0.666626ZM18.459 9.35763C18.468 9.49863 18.468 9.64563 18.468 9.78963C18.468 14.1936 15.114 19.2666 8.985 19.2666C7.095 19.2666 5.343 18.7176 3.867 17.7726C4.137 17.8026 4.395 17.8146 4.671 17.8146C6.231 17.8146 7.665 17.2866 8.808 16.3926C7.344 16.3626 6.114 15.4026 5.694 14.0826C6.207 14.1576 6.669 14.1576 7.197 14.0226C6.44318 13.8695 5.76562 13.4601 5.27945 12.864C4.79327 12.2679 4.52846 11.5218 4.53 10.7526V10.7106C4.971 10.9596 5.49 11.1126 6.033 11.1336C5.57653 10.8294 5.20217 10.4173 4.94313 9.93371C4.68409 9.45017 4.54837 8.91018 4.548 8.36163C4.548 7.74063 4.71 7.17363 5.001 6.68163C5.83771 7.71164 6.88179 8.55405 8.06539 9.15412C9.249 9.75419 10.5456 10.0985 11.871 10.1646C11.4 7.89963 13.092 6.06663 15.126 6.06663C16.086 6.06663 16.95 6.46863 17.559 7.11663C18.312 6.97563 19.032 6.69363 19.674 6.31563C19.425 7.08663 18.903 7.73763 18.21 8.14863C18.882 8.07663 19.53 7.89063 20.13 7.62963C19.677 8.29563 19.11 8.88663 18.459 9.35763Z" fill="white"/>
</svg>
