<svg width="25" height="17" viewBox="0 0 25 17" fill="none" xmlns="http://www.w3.org/2000/svg">
<path d="M23.8307 2.92825C23.6948 2.44354 23.4302 2.00472 23.0648 1.65842C22.6891 1.30147 22.2287 1.04614 21.727 0.916517C19.8492 0.421584 12.3263 0.421584 12.3263 0.421584C9.19001 0.385902 6.05453 0.542842 2.93752 0.891521C2.43578 1.03072 1.97621 1.29175 1.5997 1.65142C1.22975 2.00737 0.961785 2.44631 0.821803 2.92725C0.485542 4.73875 0.322163 6.5781 0.333869 8.42051C0.321871 10.2613 0.484849 12.1 0.821803 13.9138C0.958785 14.3927 1.22575 14.8296 1.5967 15.1826C1.96765 15.5356 2.42959 15.7905 2.93752 15.9255C4.84026 16.4194 12.3263 16.4194 12.3263 16.4194C15.4665 16.4552 18.606 16.2982 21.727 15.9495C22.2287 15.8199 22.6891 15.5645 23.0648 15.2076C23.43 14.8614 23.6944 14.4225 23.8297 13.9378C24.1747 12.127 24.3425 10.2868 24.3306 8.44351C24.3566 6.59236 24.189 4.74357 23.8307 2.92725V2.92825ZM9.93458 11.844V4.99797L16.1937 8.42151L9.93458 11.844Z" fill="white"/>
</svg>
