<svg width="49" height="35" viewBox="0 0 49 35" fill="none" xmlns="http://www.w3.org/2000/svg">
<path d="M25.0627 0.340248H25.3307C27.8064 0.349283 40.3503 0.439636 43.7325 1.34918C44.7549 1.62677 45.6866 2.16784 46.4345 2.91832C47.1823 3.6688 47.7201 4.60241 47.9941 5.62585C48.2982 6.77031 48.5121 8.28521 48.6566 9.84831L48.6868 10.1615L48.753 10.9446L48.7771 11.2578C48.9729 14.0105 48.997 16.5886 49 17.1518V17.3777C48.997 17.9619 48.9699 20.7147 48.753 23.5818L48.7289 23.8981L48.7018 24.2113C48.5512 25.934 48.3284 27.6447 47.9941 28.9036C47.7209 29.9274 47.1834 30.8615 46.4354 31.6121C45.6875 32.3627 44.7553 32.9035 43.7325 33.1802C40.2388 34.1199 26.9601 34.1862 25.1199 34.1892H24.6922C23.7616 34.1892 19.9126 34.1711 15.8769 34.0326L15.3649 34.0145L15.1029 34.0024L14.5879 33.9814L14.0729 33.9603C10.7298 33.8127 7.54642 33.5748 6.0797 33.1772C5.05719 32.9007 4.12528 32.3604 3.37734 31.6103C2.62941 30.8603 2.0917 29.9269 1.81809 28.9036C1.48379 27.6477 1.26092 25.934 1.11034 24.2113L1.08624 23.8951L1.06215 23.5818C0.913512 21.5411 0.831147 19.496 0.815186 17.4499L0.815186 17.0795C0.821209 16.432 0.845303 14.1942 1.00794 11.7246L1.02902 11.4144L1.03805 11.2578L1.06215 10.9446L1.12841 10.1615L1.15852 9.84831C1.30309 8.28521 1.51692 6.7673 1.82111 5.62585C2.09425 4.602 2.63175 3.66795 3.37972 2.91734C4.12769 2.16673 5.05984 1.62594 6.08272 1.34918C7.54943 0.957655 10.7328 0.716715 14.0759 0.566128L14.5879 0.545046L15.1059 0.526976L15.3649 0.517941L15.8799 0.496859C18.7462 0.404623 21.6137 0.353418 24.4814 0.34326H25.0627V0.340248ZM20.0903 10.0079V24.5185L32.6101 17.2662L20.0903 10.0079Z" fill="#FEF9F3"/>
</svg>
